<svg xmlns="http://www.w3.org/2000/svg" stroke-linejoin="round" class="absolute inset-0" viewBox="0 0 383.390625 642"><path fill="none" stroke="#5757E7" stroke-width="14" d="m115.353 433.854-50.737-92.07-9.909-18.885-8.414-15.705-11.031-20.567-8.04-14.771-6.918-11.779-1.87-3.706-2.028-4.327-.406-3.922v-3.245l1.217-3.921 1.623-3.516 2.839-2.975 3.516-2.164 4.733-1.622 4.868-.406 4.192.947 4.597 2.028 4.598 3.11 18.525 11.629 11.764 7.302 5.68 3.11 3.786.812 4.462-.271 3.786-1.217 4.057-2.163 2.975-3.246 2.028-3.786 1.082-3.516.541-3.245-.39-15.228V214.91l-.541-8.924.405-5.95 1.217-4.598 3.11-5.544 3.922-5.273 12.17-12.731 14.198-15.415 6.084-7.157 13.928-15.821 9.736-11.223 4.597-4.733 3.787-2.569 4.056-1.352 4.327-.271 3.11.271 3.787.946 3.515 2.434 15.551 14.604 3.921 4.733 1.758 4.597.406 4.598-.676 4.192-1.758 3.921-3.11 4.057-5.139 5.544-11.899 13.29-1.155 1.276" class="stroke-sector-1"/><path fill="none" stroke="#EBCFB2" stroke-width="14" d="m195.786 177.812-13.043 14.41-6.356 7.167-2.434 3.11-.676 3.38.947 3.651 2.028 2.975 2.84 1.758 2.569.541 2.839-.541 21.771-8.654 31.414-12.576 21.501-8.519 4.056-.946 5.274.541 4.192 1.487 3.245 2.569 3.488 4.057 1.353 3.11.676 4.462-.271 4.598-1.352 4.462-2.569 3.516-3.245 3.516-4.328 4.056-4.462 4.328-3.786 4.732-4.057 5.815-2.839 5.95-3.922 8.501-1.758 5.95-1.487 6.085-.947 5.409-1.758 4.733-2.974 3.262-4.057 2.569-3.786 1.352-22.177 5.544-14.468 3.786-4.868 1.623-3.381 2.569-1.622 3.651-1.082 2.975.135 3.11.676 3.11 1.082 2.569 2.163 3.381 3.11 3.516 4.192 4.192 6.626 5.28 7.978 5.679 8.925 4.327 8.113 3.11 7.978 2.434 10.683 1.893 10.006.947 6.22.27 5.004-.54 20.959-2.029 10.494-1.244" class="stroke-sector-2"/><path fill="none" stroke="#FE0F6D" stroke-width="14" d="m300.618 338.781 14.592-1.731 9.6-1.352 4.327-.406 3.381.406 4.733.947 3.786 1.622 3.516 2.299 3.11 2.705 2.299 2.839 2.298 3.651 10.668 18.889 2.84 6.085 1.352 3.651.271 4.463-.406 3.515-1.352 3.787-3.246 5.408-16.902 28.262-2.434 3.215-3.381 2.975-3.921 2.434-5.003 1.217-3.922-.406-7.707-1.217-34.347-7.302-26.026-5.138-4.733-.136-3.38.271-2.434 1.082-2.84 1.758-2.434 2.028-1.758 2.299-1.487 2.298-24.247 47.125-8.925 17.443-8.01 15.817-5.139 10.007-3.921 4.868-5.274 2.975-4.733 1.217-4.597-.406-5.679-2.434-3.787-2.975-3.38-5.138-8.384-15.415-9.601-17.482-28.476-51.09" class="stroke-sector-3"/><path fill="none" stroke="#000" stroke-width="12" d="m115.353 433.854-50.737-92.07-9.909-18.885-8.414-15.705-11.031-20.567-8.04-14.771-6.918-11.779-1.87-3.706-2.028-4.327-.406-3.922v-3.245l1.217-3.921 1.623-3.516 2.839-2.975 3.516-2.164 4.733-1.622 4.868-.406 4.192.947 4.597 2.028 4.598 3.11 18.525 11.629 11.764 7.302 5.68 3.11 3.786.812 4.462-.271 3.786-1.217 4.057-2.163 2.975-3.246 2.028-3.786 1.082-3.516.541-3.245-.39-15.228V214.91l-.541-8.924.405-5.95 1.217-4.598 3.11-5.544 3.922-5.273 12.17-12.731 14.198-15.415 6.084-7.157 13.928-15.821 9.736-11.223 4.597-4.733 3.787-2.569 4.056-1.352 4.327-.271 3.11.271 3.787.946 3.515 2.434 15.551 14.604 3.921 4.733 1.758 4.597.406 4.598-.676 4.192-1.758 3.921-3.11 4.057-5.139 5.544-11.899 13.29-14.198 15.686-6.356 7.167-2.434 3.11-.676 3.38.947 3.651 2.028 2.975 2.84 1.758 2.569.541 2.839-.541 21.771-8.654 31.414-12.576 21.501-8.519 4.056-.946 5.274.541 4.192 1.487 3.245 2.569 3.488 4.057 1.353 3.11.676 4.462-.271 4.598-1.352 4.462-2.569 3.516-3.245 3.516-4.328 4.056-4.462 4.328-3.786 4.732-4.057 5.815-2.839 5.95-3.922 8.501-1.758 5.95-1.487 6.085-.947 5.409-1.758 4.733-2.974 3.262-4.057 2.569-3.786 1.352-22.177 5.544-14.468 3.786-4.868 1.623-3.381 2.569-1.622 3.651-1.082 2.975.135 3.11.676 3.11 1.082 2.569 2.163 3.381 3.11 3.516 4.192 4.192 6.626 5.28 7.978 5.679 8.925 4.327 8.113 3.11 7.978 2.434 10.683 1.893 10.006.947 6.22.27 5.004-.54 20.959-2.029 25.086-2.975 9.6-1.352 4.327-.406 3.381.406 4.733.947 3.786 1.622 3.516 2.299 3.11 2.705 2.299 2.839 2.298 3.651 10.668 18.889 2.84 6.085 1.352 3.651.271 4.463-.406 3.515-1.352 3.787-3.246 5.408-16.902 28.262-2.434 3.215-3.381 2.975-3.921 2.434-5.003 1.217-3.922-.406-7.707-1.217-34.347-7.302-26.026-5.138-4.733-.136-3.38.271-2.434 1.082-2.84 1.758-2.434 2.028-1.758 2.299-1.487 2.298-24.247 47.125-8.925 17.443-8.01 15.817-5.139 10.007-3.921 4.868-5.274 2.975-4.733 1.217-4.597-.406-5.679-2.434-3.787-2.975-3.38-5.138-8.384-15.415-9.601-17.482-28.476-51.09"/><path d="m123.5073637 429.36076883-1.81197449.99852378-.99852377-1.81197448 1.81197448-.99852378z"/><path fill="#FFF" d="m121.69538921 430.3592926-1.81197448.99852378-.99852377-1.81197448 1.81197448-.99852377z"/><path d="m119.88341473 431.35781638-1.81197448.99852377-.99852377-1.81197447 1.81197448-.99852378z"/><path fill="#FFF" d="m118.07144025 432.35634015-1.81197447.99852378-.99852378-1.81197448 1.81197448-.99852377z"/><path d="m116.25946578 433.35486393-1.81197448.99852377-.99852378-1.81197448 1.81197448-.99852377z"/><path fill="#FFF" d="m114.4474913 434.3533877-1.81197447.99852377-.99852378-1.81197448 1.81197448-.99852377z"/><path d="m112.63551683 435.35191147-1.81197448.99852377-.99852378-1.81197447 1.81197448-.99852378z"/><path fill="#FFF" d="m110.82354235 436.35043524-1.81197448.99852378-.99852378-1.81197448 1.81197448-.99852377z"/><path d="m109.01156787 437.34895902-1.81197448.99852377-.99852377-1.81197448 1.81197447-.99852377z"/><path fill="#FFF" d="m122.50883992 427.54879435-1.81197448.99852378-.99852377-1.81197448 1.81197447-.99852377z"/><path d="m120.69686544 428.54731813-1.81197448.99852377-.99852377-1.81197448 1.81197448-.99852377z"/><path fill="#FFF" d="m118.88489096 429.5458419-1.81197448.99852378-.99852377-1.81197448 1.81197448-.99852378z"/><path d="m117.07291648 430.54436568-1.81197448.99852377-.99852377-1.81197448 1.81197448-.99852377z"/><path fill="#FFF" d="m115.260942 431.54288945-1.81197448.99852377-.99852377-1.81197448 1.81197448-.99852377z"/><path d="m113.44896753 432.54141322-1.81197448.99852377-.99852377-1.81197448 1.81197448-.99852377z"/><path fill="#FFF" d="m111.63699305 433.539937-1.81197448.99852377-.99852377-1.81197448 1.81197448-.99852378z"/><path d="m109.82501857 434.53846077-1.81197448.99852377-.99852377-1.81197448 1.81197448-.99852377z"/><path fill="#FFF" d="m108.0130441 435.53698454-1.81197448.99852377-.99852378-1.81197448 1.81197448-.99852377z"/><path d="m121.51031614 425.73681988-1.81197447.99852377-.99852378-1.81197448 1.81197448-.99852377z"/><path fill="#FFF" d="m119.69834167 426.73534365-1.81197448.99852377-.99852378-1.81197448 1.81197448-.99852377z"/><path d="m117.88636719 427.73386742-1.81197448.99852378-.99852378-1.81197448 1.81197448-.99852378z"/><path fill="#FFF" d="m116.0743927 428.7323912-1.81197447.99852377-.99852378-1.81197448 1.81197448-.99852377z"/><path d="m114.26241823 429.73091497-1.81197448.99852377-.99852377-1.81197447 1.81197447-.99852378z"/><path fill="#FFF" d="m112.45044376 430.72943874-1.81197448.99852377-.99852377-1.81197448 1.81197447-.99852377z"/><path d="m110.63846928 431.72796251-1.81197448.99852378-.99852377-1.81197448 1.81197448-.99852378z"/><path fill="#FFF" d="m108.8264948 432.72648629-1.81197448.99852377-.99852377-1.81197448 1.81197448-.99852377z"/><path d="m107.01452032 433.72501006-1.81197448.99852377-.99852377-1.81197447 1.81197448-.99852378z"/><circle r="5.5" fill="#E21E19" stroke="#000" class="cursor-pointer" style="--blink-fill-color:#ff8000" transform="translate(159.83500671 513.74298096)"/><text fill-opacity="0" alignment-baseline="central" class="pointer-events-none" font-size="10.52631579" text-anchor="middle" transform="translate(159.83500671 513.74298096)">99</text><path fill="none" d="M159.835 513.743" class="pointer-events-none"/></svg>