<svg xmlns:xlink="http://www.w3.org/1999/xlink" xmlns="http://www.w3.org/2000/svg" viewBox="0 0 383.390625 642" preserveAspectRatio="xMidYMid meet" stroke-linejoin="round" class="absolute inset-0" width="383.390625"  height="642" ><path class="stroke-sector-1" stroke-width="14px" fill="#000000" d="M115.353,433.854L64.616,341.784L54.707,322.899L46.293,307.194L35.262,286.627L27.222,271.856L20.304,260.077L18.434,256.371L16.406,252.044L16,248.122L16,244.877L17.217,240.956L18.84,237.44L21.679,234.465L25.195,232.301L29.928,230.679L34.796,230.273L38.988,231.22L43.585,233.248L48.183,236.358L66.708,247.987L78.472,255.289L84.152,258.399L87.938,259.211L92.4,258.94L96.186,257.723L100.243,255.56L103.218,252.314L105.246,248.528L106.328,245.012L106.869,241.767L106.479,226.539L106.479,214.91L105.938,205.986L106.343,200.036L107.56,195.438L110.67,189.894L114.592,184.621L126.762,171.89L140.96,156.475L147.044,149.318L160.972,133.497L170.708,122.274L175.305,117.541L179.092,114.972L183.148,113.62L187.475,113.349L190.585,113.62L194.372,114.566L197.887,117L213.438,131.604L217.359,136.337L219.117,140.934L219.523,145.532L218.847,149.724L217.089,153.645L213.979,157.702L208.84,163.246L196.941,176.536L195.786,177.812" stroke="#5757E7" fill-opacity="0"></path><path class="stroke-sector-2" stroke-width="14px" fill="#000000" d="M195.786,177.812L182.743,192.222L176.387,199.389L173.953,202.499L173.277,205.879L174.224,209.53L176.252,212.505L179.092,214.263L181.661,214.804L184.5,214.263L206.271,205.609L237.685,193.033L259.186,184.514L263.242,183.568L268.516,184.109L272.708,185.596L275.953,188.165L279.441,192.222L280.794,195.332L281.47,199.794L281.199,204.392L279.847,208.854L277.278,212.37L274.033,215.886L269.705,219.942L265.243,224.27L261.457,229.002L257.4,234.817L254.561,240.767L250.639,249.268L248.881,255.218L247.394,261.303L246.447,266.712L244.689,271.445L241.715,274.707L237.658,277.276L233.872,278.628L211.695,284.172L197.227,287.958L192.359,289.581L188.978,292.15L187.356,295.801L186.274,298.776L186.409,301.886L187.085,304.996L188.167,307.565L190.33,310.946L193.44,314.462L197.632,318.654L204.258,323.934L212.236,329.613L221.161,333.94L229.274,337.05L237.252,339.484L247.935,341.377L257.941,342.324L264.161,342.594L269.165,342.054L290.124,340.025L300.618,338.781" stroke="#EBCFB2" fill-opacity="0"></path><path class="stroke-sector-3" stroke-width="14px" fill="#000000" d="M300.618,338.781L315.21,337.05L324.81,335.698L329.137,335.292L332.518,335.698L337.251,336.645L341.037,338.267L344.553,340.566L347.663,343.271L349.962,346.11L352.26,349.761L362.928,368.65L365.768,374.735L367.12,378.386L367.391,382.849L366.985,386.364L365.633,390.151L362.387,395.559L345.485,423.821L343.051,427.036L339.67,430.011L335.749,432.445L330.746,433.662L326.824,433.256L319.117,432.039L284.77,424.737L258.744,419.599L254.011,419.463L250.631,419.734L248.197,420.816L245.357,422.574L242.923,424.602L241.165,426.901L239.678,429.199L215.431,476.324L206.506,493.767L198.496,509.584L193.357,519.591L189.436,524.459L184.162,527.434L179.429,528.651L174.832,528.245L169.153,525.811L165.366,522.836L161.986,517.698L153.602,502.283L144.001,484.801L115.525,433.711" stroke="#FE0F6D" fill-opacity="0"></path><path stroke="#000000" stroke-width="12px" fill="#000000" d="M115.353,433.854L64.616,341.784L54.707,322.899L46.293,307.194L35.262,286.627L27.222,271.856L20.304,260.077L18.434,256.371L16.406,252.044L16,248.122L16,244.877L17.217,240.956L18.84,237.44L21.679,234.465L25.195,232.301L29.928,230.679L34.796,230.273L38.988,231.22L43.585,233.248L48.183,236.358L66.708,247.987L78.472,255.289L84.152,258.399L87.938,259.211L92.4,258.94L96.186,257.723L100.243,255.56L103.218,252.314L105.246,248.528L106.328,245.012L106.869,241.767L106.479,226.539L106.479,214.91L105.938,205.986L106.343,200.036L107.56,195.438L110.67,189.894L114.592,184.621L126.762,171.89L140.96,156.475L147.044,149.318L160.972,133.497L170.708,122.274L175.305,117.541L179.092,114.972L183.148,113.62L187.475,113.349L190.585,113.62L194.372,114.566L197.887,117L213.438,131.604L217.359,136.337L219.117,140.934L219.523,145.532L218.847,149.724L217.089,153.645L213.979,157.702L208.84,163.246L196.941,176.536L182.743,192.222L176.387,199.389L173.953,202.499L173.277,205.879L174.224,209.53L176.252,212.505L179.092,214.263L181.661,214.804L184.5,214.263L206.271,205.609L237.685,193.033L259.186,184.514L263.242,183.568L268.516,184.109L272.708,185.596L275.953,188.165L279.441,192.222L280.794,195.332L281.47,199.794L281.199,204.392L279.847,208.854L277.278,212.37L274.033,215.886L269.705,219.942L265.243,224.27L261.457,229.002L257.4,234.817L254.561,240.767L250.639,249.268L248.881,255.218L247.394,261.303L246.447,266.712L244.689,271.445L241.715,274.707L237.658,277.276L233.872,278.628L211.695,284.172L197.227,287.958L192.359,289.581L188.978,292.15L187.356,295.801L186.274,298.776L186.409,301.886L187.085,304.996L188.167,307.565L190.33,310.946L193.44,314.462L197.632,318.654L204.258,323.934L212.236,329.613L221.161,333.94L229.274,337.05L237.252,339.484L247.935,341.377L257.941,342.324L264.161,342.594L269.165,342.054L290.124,340.025L315.21,337.05L324.81,335.698L329.137,335.292L332.518,335.698L337.251,336.645L341.037,338.267L344.553,340.566L347.663,343.271L349.962,346.11L352.26,349.761L362.928,368.65L365.768,374.735L367.12,378.386L367.391,382.849L366.985,386.364L365.633,390.151L362.387,395.559L345.485,423.821L343.051,427.036L339.67,430.011L335.749,432.445L330.746,433.662L326.824,433.256L319.117,432.039L284.77,424.737L258.744,419.599L254.011,419.463L250.631,419.734L248.197,420.816L245.357,422.574L242.923,424.602L241.165,426.901L239.678,429.199L215.431,476.324L206.506,493.767L198.496,509.584L193.357,519.591L189.436,524.459L184.162,527.434L179.429,528.651L174.832,528.245L169.153,525.811L165.366,522.836L161.986,517.698L153.602,502.283L144.001,484.801L115.525,433.711" fill-opacity="0"></path><g transform="translate(115.3534785406664, 433.854125812999) rotate(151.14218351915434)"><rect x="-9.31" y="0" width="2.068888888888889" height="2.068888888888889" fill="black"></rect><rect x="-7.2411111111111115" y="0" width="2.068888888888889" height="2.068888888888889" fill="#FFFFFF"></rect><rect x="-5.1722222222222225" y="0" width="2.068888888888889" height="2.068888888888889" fill="black"></rect><rect x="-3.1033333333333335" y="0" width="2.068888888888889" height="2.068888888888889" fill="#FFFFFF"></rect><rect x="-1.0344444444444445" y="0" width="2.068888888888889" height="2.068888888888889" fill="black"></rect><rect x="1.0344444444444445" y="0" width="2.068888888888889" height="2.068888888888889" fill="#FFFFFF"></rect><rect x="3.1033333333333335" y="0" width="2.068888888888889" height="2.068888888888889" fill="black"></rect><rect x="5.1722222222222225" y="0" width="2.068888888888889" height="2.068888888888889" fill="#FFFFFF"></rect><rect x="7.2411111111111115" y="0" width="2.068888888888889" height="2.068888888888889" fill="black"></rect><rect x="-9.31" y="2.068888888888889" width="2.068888888888889" height="2.068888888888889" fill="#FFFFFF"></rect><rect x="-7.2411111111111115" y="2.068888888888889" width="2.068888888888889" height="2.068888888888889" fill="black"></rect><rect x="-5.1722222222222225" y="2.068888888888889" width="2.068888888888889" height="2.068888888888889" fill="#FFFFFF"></rect><rect x="-3.1033333333333335" y="2.068888888888889" width="2.068888888888889" height="2.068888888888889" fill="black"></rect><rect x="-1.0344444444444445" y="2.068888888888889" width="2.068888888888889" height="2.068888888888889" fill="#FFFFFF"></rect><rect x="1.0344444444444445" y="2.068888888888889" width="2.068888888888889" height="2.068888888888889" fill="black"></rect><rect x="3.1033333333333335" y="2.068888888888889" width="2.068888888888889" height="2.068888888888889" fill="#FFFFFF"></rect><rect x="5.1722222222222225" y="2.068888888888889" width="2.068888888888889" height="2.068888888888889" fill="black"></rect><rect x="7.2411111111111115" y="2.068888888888889" width="2.068888888888889" height="2.068888888888889" fill="#FFFFFF"></rect><rect x="-9.31" y="4.137777777777778" width="2.068888888888889" height="2.068888888888889" fill="black"></rect><rect x="-7.2411111111111115" y="4.137777777777778" width="2.068888888888889" height="2.068888888888889" fill="#FFFFFF"></rect><rect x="-5.1722222222222225" y="4.137777777777778" width="2.068888888888889" height="2.068888888888889" fill="black"></rect><rect x="-3.1033333333333335" y="4.137777777777778" width="2.068888888888889" height="2.068888888888889" fill="#FFFFFF"></rect><rect x="-1.0344444444444445" y="4.137777777777778" width="2.068888888888889" height="2.068888888888889" fill="black"></rect><rect x="1.0344444444444445" y="4.137777777777778" width="2.068888888888889" height="2.068888888888889" fill="#FFFFFF"></rect><rect x="3.1033333333333335" y="4.137777777777778" width="2.068888888888889" height="2.068888888888889" fill="black"></rect><rect x="5.1722222222222225" y="4.137777777777778" width="2.068888888888889" height="2.068888888888889" fill="#FFFFFF"></rect><rect x="7.2411111111111115" y="4.137777777777778" width="2.068888888888889" height="2.068888888888889" fill="black"></rect></g><g><circle class="cursor-pointer" fill="#E21E19" stroke-width="1" stroke="#000000" r="5.5" transform="translate(159.8350067138672,513.7429809570312)" style="--blink-fill-color: #ff8000;"></circle><text class="pointer-events-none" text-anchor="middle" alignment-baseline="central" fill="#000000" font-size="10.526315789473683" transform="translate(159.8350067138672,513.7429809570312)" fill-opacity="0">99</text><path class="pointer-events-none" stroke="none" fill="none" d="M159.835,513.743L159.835,513.743"></path></g></svg>