<svg xmlns="http://www.w3.org/2000/svg" stroke-linejoin="round" class="absolute inset-0" viewBox="0 0 383.390625 642"><path fill="none" stroke="#5757E7" stroke-width="14" d="m242.209 251.5-6.169.041-2.941-.245-4.658-.777-6.373-1.389-23.862-5.188-6.864-1.267-5.573-.899-10.786-.245-6.836-.245-15.606 1.267-22.61 2.288-12.338 3.064-5.593 1.431-2.411.94-1.511 1.389-.899 2.124-.654 3.514-.858 2.859-.899 1.921-1.756 1.675-2.315 1.362-15.28 7.394-2.165 1.512-1.757 1.757-1.266 2.369-9.847 24.461-10.607 26.256" class="stroke-sector-1"/><path fill="none" stroke="#EBCFB2" stroke-width="14" d="m59.775 328.869-.538 1.331-7.481 19.148-.49 1.634-.123 1.267v1.757l.286 1.593 2.451 8.643.327 1.512.041 1.675-.204.98-.45 1.144-1.021 1.389-22.236 18.704-10.377 8.661-3.102 3.373-.776 1.757-.082 2.206.531 2.124 1.144 1.961 1.839 1.43 2.328.654h1.92l5.638-.776 14.494-1.88 16.138-2.206 9.023-1.225 8.457-.858 5.638-.818 5.71-.04 3.513.122 5.148.409 5.594.899 7.599 1.47 5.883 1.144 5.017.899 3.677.531 2.615.245 1.961-.286 2.124-.776 1.512-1.021 1.43-1.471 1.389-2.084 1.43-2.696 3.203-6.283 1.185-2.574 1.471-3.84.939-3.963.532-3.677.204-3.184-.327-4.167-.531-3.8-1.512-6.618-3.84-15.978-1.526-7.36" class="stroke-sector-2"/><path fill="none" stroke="#FE0F6D" stroke-width="14" d="m137.55 339.95-.394-1.901v-1.634l.694-1.961 1.226-2.329 8.289-12.459 1.593-1.021.899-.327 1.389-.041 1.185.368 1.593.572 4.845 2.165 1.961.532 2.778.285 3.146-.04 3.84.04 17.202-.326 9.273.041 11.235-.286 5.638-.041 24.017-.123h4.453l1.702.204 1.266.777.572 1.307.49 1.348.491 1.062.613.777 1.062.449 1.43-.286 2.328-.817 9.269-3.824 6.904-3.105 5.842-2.819 6.597-2.573 3.228-1.389 4.617-2.697 6.863-5.188 6.759-4.773 5.352-5.148 3.922-4.004 9.218-9.431 6.046-5.965 5.096-5.064 1.92-1.348 2.615-1.961 3.064-1.471 4.593-1.917 20.873-8.743.898-1.022.818-1.266.449-1.348.082-1.961-.817-2.347-6.129-13.914-1.511-1.43-1.185-.735-1.185-.368-1.716-.286-1.716.123-3.023.858-22.307 8.62-16.367 6.292-10.073 3.662-5.392 1.348-4.895.695-7.313.163-17.6-.327-23.945-.113" class="stroke-sector-3"/><path fill="none" stroke="#000" stroke-width="12" d="m242.209 251.5-6.169.041-2.941-.245-4.658-.777-6.373-1.389-23.862-5.188-6.864-1.267-5.573-.899-10.786-.245-6.836-.245-15.606 1.267-22.61 2.288-12.338 3.064-5.593 1.431-2.411.94-1.511 1.389-.899 2.124-.654 3.514-.858 2.859-.899 1.921-1.756 1.675-2.315 1.362-15.28 7.394-2.165 1.512-1.757 1.757-1.266 2.369-9.847 24.461L59.237 330.2l-7.481 19.148-.49 1.634-.123 1.267v1.757l.286 1.593 2.451 8.643.327 1.512.041 1.675-.204.98-.45 1.144-1.021 1.389-22.236 18.704-10.377 8.661-3.102 3.373-.776 1.757-.082 2.206.531 2.124 1.144 1.961 1.839 1.43 2.328.654h1.92l5.638-.776 14.494-1.88 16.138-2.206 9.023-1.225 8.457-.858 5.638-.818 5.71-.04 3.513.122 5.148.409 5.594.899 7.599 1.47 5.883 1.144 5.017.899 3.677.531 2.615.245 1.961-.286 2.124-.776 1.512-1.021 1.43-1.471 1.389-2.084 1.43-2.696 3.203-6.283 1.185-2.574 1.471-3.84.939-3.963.532-3.677.204-3.184-.327-4.167-.531-3.8-1.512-6.618-3.84-15.978-1.92-9.261v-1.634l.694-1.961 1.226-2.329 8.289-12.459 1.593-1.021.899-.327 1.389-.041 1.185.368 1.593.572 4.845 2.165 1.961.532 2.778.285 3.146-.04 3.84.04 17.202-.326 9.273.041 11.235-.286 5.638-.041 24.017-.123h4.453l1.702.204 1.266.777.572 1.307.49 1.348.491 1.062.613.777 1.062.449 1.43-.286 2.328-.817 9.269-3.824 6.904-3.105 5.842-2.819 6.597-2.573 3.228-1.389 4.617-2.697 6.863-5.188 6.759-4.773 5.352-5.148 3.922-4.004 9.218-9.431 6.046-5.965 5.096-5.064 1.92-1.348 2.615-1.961 3.064-1.471 4.593-1.917 20.873-8.743.898-1.022.818-1.266.449-1.348.082-1.961-.817-2.347-6.129-13.914-1.511-1.43-1.185-.735-1.185-.368-1.716-.286-1.716.123-3.023.858-22.307 8.62-16.367 6.292-10.073 3.662-5.392 1.348-4.895.695-7.313.163-17.6-.327-23.945-.113"/><path d="m242.14758125 242.19012586.01370095 2.06884352-2.06884352.01370095-.01370095-2.06884352z"/><path fill="#FFF" d="m242.1612822 244.25896938.01370096 2.06884352-2.06884353.01370095-.01370095-2.06884352z"/><path d="m242.17498316 246.3278129.01370095 2.06884353-2.06884353.01370095-.01370095-2.06884353z"/><path fill="#FFF" d="m242.1886841 248.39665643.01370096 2.06884352-2.06884353.01370095-.01370095-2.06884352z"/><path d="m242.20238506 250.46549995.01370095 2.06884352-2.06884353.01370095-.01370095-2.06884352z"/><path fill="#FFF" d="m242.216086 252.53434346.01370096 2.06884353-2.06884353.01370095-.01370095-2.06884353z"/><path d="m242.22978696 254.60318699.01370095 2.06884352-2.06884353.01370095-.01370095-2.06884352z"/><path fill="#FFF" d="m242.2434879 256.6720305.01370096 2.06884353-2.06884352.01370095-.01370096-2.06884352z"/><path d="m242.25718886 258.74087403.01370095 2.06884352-2.06884352.01370096-.01370095-2.06884353z"/><path fill="#FFF" d="m240.07873773 242.2038268.01370095 2.06884353-2.06884352.01370095-.01370095-2.06884352z"/><path d="m240.09243868 244.27267033.01370095 2.06884352-2.06884352.01370095-.01370095-2.06884352z"/><path fill="#FFF" d="m240.10613963 246.34151385.01370095 2.06884353-2.06884352.01370095-.01370095-2.06884353z"/><path d="m240.11984058 248.41035738.01370095 2.06884352-2.06884352.01370095-.01370095-2.06884352z"/><path fill="#FFF" d="m240.13354153 250.4792009.01370095 2.06884352-2.06884352.01370095-.01370095-2.06884352z"/><path d="m240.14724248 252.54804441.01370095 2.06884353-2.06884352.01370095-.01370095-2.06884353z"/><path fill="#FFF" d="m240.16094343 254.61688794.01370095 2.06884352-2.06884352.01370095-.01370095-2.06884352z"/><path d="m240.17464438 256.68573146.01370096 2.06884352-2.06884353.01370095-.01370095-2.06884352z"/><path fill="#FFF" d="m240.18834534 258.75457498.01370095 2.06884353-2.06884353.01370095-.01370095-2.06884353z"/><path d="m238.0098942 242.21752776.01370096 2.06884352-2.06884352.01370095-.01370096-2.06884352z"/><path fill="#FFF" d="m238.02359516 244.28637128.01370095 2.06884352-2.06884352.01370095-.01370095-2.06884352z"/><path d="m238.0372961 246.3552148.01370096 2.06884353-2.06884352.01370095-.01370095-2.06884353z"/><path fill="#FFF" d="m238.05099706 248.42405833.01370095 2.06884352-2.06884352.01370095-.01370095-2.06884352z"/><path d="m238.06469801 250.49290185.01370095 2.06884352-2.06884352.01370095-.01370095-2.06884352z"/><path fill="#FFF" d="m238.07839896 252.56174536.01370095 2.06884353-2.06884352.01370095-.01370095-2.06884353z"/><path d="m238.09209991 254.63058889.01370095 2.06884352-2.06884352.01370095-.01370095-2.06884352z"/><path fill="#FFF" d="m238.10580086 256.69943241.01370095 2.06884352-2.06884352.01370095-.01370095-2.06884352z"/><path d="m238.11950181 258.76827593.01370095 2.06884353-2.06884352.01370095-.01370095-2.06884353z"/></svg>