<svg xmlns="http://www.w3.org/2000/svg" stroke-linejoin="round" class="absolute inset-0" viewBox="0 0 383.390625 642"><path fill="none" stroke="#5757E7" stroke-width="14" d="m142.03 130.896-5.287-9.274-6.459-11.418-4.502-8.547-7.617-13.237-7.633-13.244-4.763-8.155-6.113-10.213-4.371-7.503-3.589-6.068-1.37-3.131.131-1.958.848-1.044 1.109-.782 1.435-.261 1.24.195 2.544.587 4.633 1.827 13.896 6.459 11.418 5.872 10.629 5.694 4.436 2.936 4.828 3.327 8.703 6.784 8.482 6.72 4.11 3.849 3.98 3.914 3.322 3.932 4.958 5.742 3.915 4.827 6.802 8.531 3.131 3.784 4.894 5.35 6.433 7.69 5.545 6.263 4.567 5.35 3.98 4.632 3.523 4.306 2.479 2.806 1.566 1.565 2.627 1.59 2.805 1.827 3.784 2.414 3.784 2.414 3.523 2.283 2.414 1.958 2.291 2.547 1.827 2.544 1.762 2.871 1.304 2.806 1.11 2.805.978 2.74.848 3.197.587 2.818.392 3.262.587 4.111.392 3.066.326 2.414.717 2.871 1.044 2.936 1.175 2.414 1.957 3.523 7.885 13.349 4.502 7.177 8.017 12.49 2.284 3.588 2.74 4.828 3.523 5.434 2.545 3.915 2.283 3.523 2.284 4.11 2.153 3.719 2.029 4.143 1.958 4.567 1.696 4.567 1.501 4.633 2.153 6.789 1.957 6.525 1.957 6.263 1.631 6.002 1.37 4.893 1.501 5.219.913 4.306 1.566 5.611 1.892 6.002 1.175 4.045 3.351 11.554 3.001 9.395 2.022 6.85 3.85 12.868 2.153 7.959 2.087 7.438 3.393 11.731 2.349 7.829 2.544 8.419 1.305 3.784 2.284 7.047 1.37 5.051 1.074 3.906" class="stroke-sector-1"/><path fill="none" stroke="#EBCFB2" stroke-width="14" d="m356.395 447.943 1.079 3.923 1.696 6.002 1.305 4.828 1.827 6.343 1.957 6.329 1.044 4.436 1.174 3.915.783 3.458.131 1.957-.457 2.87-.979 2.682-1.761 2.479-2.023 2.088-2.088 1.175-2.283 1.565-1.566.914-1.435 1.174-1.37 1.762-1.109 2.087-.588 2.48-.456 2.414.195 2.74.392 3.23 2.153 10.765 1.5 7.829.849 3.262.391 2.12-.065 2.283-.065 1.892-.392 2.153-1.37 3.197-1.174 1.501-1.305 1.761-1.697 1.566-2.544 1.827-20.734 14.545-14.158 9.722-15.997 10.848-11.157 7.829-3.348 2.284-3.132 1.37-2.674.391-2.61-.13-3.328-.979-2.87-1.37-2.088-2.088-1.631-2.283-1.24-2.61-.522-2.153-.13-3.001.457-2.74 1.304-3.001 1.436-2.349 2.153-2.023 2.61-2.153 21.261-13.255 6.525-4.306 2.87-2.61 1.044-1.826 1.044-2.741.522-2.675-.13-2.609-.718-2.936-3.327-10.141-3.328-8.938-4.436-14.988-2.219-7.568-1.957-8.017-2.022-11.026-1.501-7.177-3.784-17.943-2.153-12.331-1.832-11.933-1.044-5.415-.783-4.502-1.109-3.458-1.109-2.544-1.371-2.219-2.022-2.675-2.023-2.805-1.631-1.044-2.491-1.757-3.067-1.957-2.675-1.109-3.719-.848-4.697-.522-10.765-.718-5.154-.196-4.88.588-4.502.848-3.914 1.109-4.11 1.957-3.85 2.479-3.588 2.48-2.936 2.936-3.384 3.979-2.283 3.328-2.023 3.784-1.761 4.567-8.319 20.254-3.849 10.374-9.451 25.563-2.479 6.263-4.176 10.808-1.239 3.067-1.37 2.283-1.958 2.545-1.826 2.218-2.936 2.479-2.806 1.566-2.936 1.174-4.345.718h-4.241l-3.327-.783-3.85-1.501-3.979-2.218-4.176-2.544-4.045-1.631-3.436-.979h-2.871l-3.784.652-3.131.718-3.002 1.175-2.609 1.631-2.023 1.892-1.827 2.087-5.565 8.789-10.439 16.507-11.834 18.502-2.414 3.262-1.762 1.762-2.153 1.109-2.022 1.109-3.328.587-3.001-.261-3.197-.783-2.675-1.305-3.132-2.283-23.371-16.449-3.262-3.131-2.377-2.609" class="stroke-sector-2"/><path fill="none" stroke="#FE0F6D" stroke-width="14" d="m20.93 544.942-.298-.327-1.631-2.806-1.239-2.805-.979-3.001-.653-2.806-.13-2.544.196-2.936.261-3.406.195-2.349.914-3.067 1.696-4.632 2.479-6.133 1.631-4.371 1.11-3.001 1.435-2.554 2.74-4.958 2.74-4.502 4.241-6.329 3.463-4.517 3.562-4.186 5.153-5.466 5.564-5.431 4.6-4.66 6.702-6.611 7.303-5.861 6.048-4.064 5.641-3.326 6.777-3.648 15.417-8.036 11.139-5.934 16.573-9.015 5.447-3.772 3.796-2.946 3.088-3.04 3.024-2.926 2.743-2.851 2.936-3.75 3.618-4.947 2.433-4.489 1.863-3.574 1.325-2.795 1.148-2.586 2.542-5.573 2.692-6.248 3.733-7.992 1.912-4.575 2.622-5.848 2.242-5.69 1.488-5.377.663-4.927-.042-3.647-.21-3.815-.252-3.093-.672-3.163-1.681-5.317-1.849-5.427-2.186-5.896-2.524-6.837-6.14-15.794-4.589-11.35-3.162-8.915-1.882-6.924-1.463-7.092-.741-5.11-.955-10.299-.516-9.482-.762-7.665-2.346-21.913-.414-3.832.49-1.904 1.473-1.832 2.288-.374 1.613.242 3.39.811 2.503.307 2.206-.867 1.78-2.065.432-2.483-1.275-2.827-3.174-4.848-4.219-6.656-7.582-12.683-8.341-16.026" class="stroke-sector-3"/><path fill="none" stroke="#000" stroke-width="12" d="m142.03 130.896-5.287-9.274-6.459-11.418-4.502-8.547-7.617-13.237-7.633-13.244-4.763-8.155-6.113-10.213-4.371-7.503-3.589-6.068-1.37-3.131.131-1.958.848-1.044 1.109-.782 1.435-.261 1.24.195 2.544.587 4.633 1.827 13.896 6.459 11.418 5.872 10.629 5.694 4.436 2.936 4.828 3.327 8.703 6.784 8.482 6.72 4.11 3.849 3.98 3.914 3.322 3.932 4.958 5.742 3.915 4.827 6.802 8.531 3.131 3.784 4.894 5.35 6.433 7.69 5.545 6.263 4.567 5.35 3.98 4.632 3.523 4.306 2.479 2.806 1.566 1.565 2.627 1.59 2.805 1.827 3.784 2.414 3.784 2.414 3.523 2.283 2.414 1.958 2.291 2.547 1.827 2.544 1.762 2.871 1.304 2.806 1.11 2.805.978 2.74.848 3.197.587 2.818.392 3.262.587 4.111.392 3.066.326 2.414.717 2.871 1.044 2.936 1.175 2.414 1.957 3.523 7.885 13.349 4.502 7.177 8.017 12.49 2.284 3.588 2.74 4.828 3.523 5.434 2.545 3.915 2.283 3.523 2.284 4.11 2.153 3.719 2.029 4.143 1.958 4.567 1.696 4.567 1.501 4.633 2.153 6.789 1.957 6.525 1.957 6.263 1.631 6.002 1.37 4.893 1.501 5.219.913 4.306 1.566 5.611 1.892 6.002 1.175 4.045 3.351 11.554 3.001 9.395 2.022 6.85 3.85 12.868 2.153 7.959 2.087 7.438 3.393 11.731 2.349 7.829 2.544 8.419 1.305 3.784 2.284 7.047 1.37 5.051 2.153 7.829 1.696 6.002 1.305 4.828 1.827 6.343 1.957 6.329 1.044 4.436 1.174 3.915.783 3.458.131 1.957-.457 2.87-.979 2.682-1.761 2.479-2.023 2.088-2.088 1.175-2.283 1.565-1.566.914-1.435 1.174-1.37 1.762-1.109 2.087-.588 2.48-.456 2.414.195 2.74.392 3.23 2.153 10.765 1.5 7.829.849 3.262.391 2.12-.065 2.283-.065 1.892-.392 2.153-1.37 3.197-1.174 1.501-1.305 1.761-1.697 1.566-2.544 1.827-20.734 14.545-14.158 9.722-15.997 10.848-11.157 7.829-3.348 2.284-3.132 1.37-2.674.391-2.61-.13-3.328-.979-2.87-1.37-2.088-2.088-1.631-2.283-1.24-2.61-.522-2.153-.13-3.001.457-2.74 1.304-3.001 1.436-2.349 2.153-2.023 2.61-2.153 21.261-13.255 6.525-4.306 2.87-2.61 1.044-1.826 1.044-2.741.522-2.675-.13-2.609-.718-2.936-3.327-10.141-3.328-8.938-4.436-14.988-2.219-7.568-1.957-8.017-2.022-11.026-1.501-7.177-3.784-17.943-2.153-12.331-1.832-11.933-1.044-5.415-.783-4.502-1.109-3.458-1.109-2.544-1.371-2.219-2.022-2.675-2.023-2.805-1.631-1.044-2.491-1.757-3.067-1.957-2.675-1.109-3.719-.848-4.697-.522-10.765-.718-5.154-.196-4.88.588-4.502.848-3.914 1.109-4.11 1.957-3.85 2.479-3.588 2.48-2.936 2.936-3.384 3.979-2.283 3.328-2.023 3.784-1.761 4.567-8.319 20.254-3.849 10.374-9.451 25.563-2.479 6.263-4.176 10.808-1.239 3.067-1.37 2.283-1.958 2.545-1.826 2.218-2.936 2.479-2.806 1.566-2.936 1.174-4.345.718h-4.241l-3.327-.783-3.85-1.501-3.979-2.218-4.176-2.544-4.045-1.631-3.436-.979h-2.871l-3.784.652-3.131.718-3.002 1.175-2.609 1.631-2.023 1.892-1.827 2.087-5.565 8.789-10.439 16.507-11.834 18.502-2.414 3.262-1.762 1.762-2.153 1.109-2.022 1.109-3.328.587-3.001-.261-3.197-.783-2.675-1.305-3.132-2.283-23.371-16.449-3.262-3.131-2.675-2.936-1.631-2.806-1.239-2.805-.979-3.001-.653-2.806-.13-2.544.196-2.936.261-3.406.195-2.349.914-3.067 1.696-4.632 2.479-6.133 1.631-4.371 1.11-3.001 1.435-2.554 2.74-4.958 2.74-4.502 4.241-6.329 3.463-4.517 3.562-4.186 5.153-5.466 5.564-5.431 4.6-4.66 6.702-6.611 7.303-5.861 6.048-4.064 5.641-3.326 6.777-3.648 15.417-8.036 11.139-5.934 16.573-9.015 5.447-3.772 3.796-2.946 3.088-3.04 3.024-2.926 2.743-2.851 2.936-3.75 3.618-4.947 2.433-4.489 1.863-3.574 1.325-2.795 1.148-2.586 2.542-5.573 2.692-6.248 3.733-7.992 1.912-4.575 2.622-5.848 2.242-5.69 1.488-5.377.663-4.927-.042-3.647-.21-3.815-.252-3.093-.672-3.163-1.681-5.317-1.849-5.427-2.186-5.896-2.524-6.837-6.14-15.794-4.589-11.35-3.162-8.915-1.882-6.924-1.463-7.092-.741-5.11-.955-10.299-.516-9.482-.762-7.665-2.346-21.913-.414-3.832.49-1.904 1.473-1.832 2.288-.374 1.613.242 3.39.811 2.503.307 2.206-.867 1.78-2.065.432-2.483-1.275-2.827-3.174-4.848-4.219-6.656-7.582-12.683-8.341-16.026"/><path d="m150.11832482 126.28509637-1.79730922 1.02468572-1.02468571-1.79730922 1.79730922-1.02468571z"/><path fill="#FFF" d="m148.3210156 127.30978209-1.79730921 1.02468571-1.02468572-1.79730922 1.79730922-1.02468571z"/><path d="m146.52370639 128.3344678-1.79730922 1.02468571-1.02468572-1.79730921 1.79730922-1.02468572z"/><path fill="#FFF" d="m144.72639717 129.35915351-1.79730922 1.02468572-1.02468572-1.79730922 1.79730922-1.02468571z"/><path d="m142.92908795 130.38383923-1.79730922 1.02468571-1.02468571-1.79730922 1.79730921-1.02468571z"/><path fill="#FFF" d="m141.13177874 131.40852494-1.79730922 1.02468571-1.02468571-1.79730922 1.79730921-1.02468571z"/><path d="m139.33446952 132.43321065-1.79730922 1.02468571-1.02468571-1.79730921 1.79730922-1.02468572z"/><path fill="#FFF" d="m137.5371603 133.45789636-1.79730922 1.02468572-1.02468571-1.79730922 1.79730922-1.02468571z"/><path d="m135.73985108 134.48258208-1.79730922 1.02468571-1.02468571-1.79730922 1.79730922-1.02468571z"/><path fill="#FFF" d="m149.0936391 124.48778716-1.79730921 1.0246857-1.02468571-1.79730921 1.79730922-1.02468571z"/><path d="m147.29632989 125.51247287-1.79730922 1.02468571-1.02468571-1.79730922 1.79730922-1.02468571z"/><path fill="#FFF" d="m145.49902067 126.53715858-1.79730922 1.02468572-1.02468571-1.79730922 1.79730922-1.02468572z"/><path d="m143.70171145 127.5618443-1.79730922 1.02468571-1.0246857-1.79730922 1.79730921-1.02468571z"/><path fill="#FFF" d="m141.90440223 128.58653001-1.79730921 1.02468571-1.02468572-1.79730922 1.79730922-1.0246857z"/><path d="m140.10709302 129.61121572-1.79730921 1.02468571-1.02468572-1.79730922 1.79730922-1.02468571z"/><path fill="#FFF" d="m138.3097838 130.63590143-1.79730921 1.02468572-1.02468572-1.79730922 1.79730922-1.02468572z"/><path d="m136.51247459 131.66058715-1.79730922 1.0246857-1.02468572-1.7973092 1.79730922-1.02468572z"/><path fill="#FFF" d="m134.71516537 132.68527286-1.79730922 1.02468571-1.02468571-1.79730922 1.79730921-1.0246857z"/><path d="m148.0689534 122.69047794-1.79730922 1.02468571-1.02468572-1.79730922 1.79730922-1.02468571z"/><path fill="#FFF" d="m146.27164418 123.71516365-1.79730922 1.02468571-1.02468572-1.79730921 1.79730922-1.02468572z"/><path d="m144.47433496 124.73984936-1.79730922 1.02468572-1.02468571-1.79730922 1.79730921-1.02468571z"/><path fill="#FFF" d="m142.67702574 125.76453508-1.79730922 1.02468571-1.02468571-1.79730922 1.79730922-1.02468571z"/><path d="m140.87971652 126.7892208-1.79730922 1.0246857-1.02468571-1.79730921 1.79730922-1.02468572z"/><path fill="#FFF" d="m139.08240731 127.8139065-1.79730922 1.02468571-1.02468571-1.79730922 1.79730922-1.0246857z"/><path d="m137.2850981 128.83859221-1.79730923 1.02468572-1.02468571-1.79730922 1.79730922-1.02468572z"/><path fill="#FFF" d="m135.48778887 129.86327793-1.79730922 1.02468571-1.0246857-1.79730922 1.79730921-1.02468571z"/><path d="m133.69047965 130.88796364-1.79730921 1.02468571-1.02468572-1.79730921 1.79730922-1.02468572z"/></svg>