<svg xmlns="http://www.w3.org/2000/svg" stroke-linejoin="round" class="absolute inset-0" viewBox="0 0 383.390625 642"><path fill="none" stroke="#5757E7" stroke-width="14" d="m38.807 167.155.818-25.811.271-7.088.357-5.862.267-3.369.616-3.456 1.144-6.038 1.613-5.926 1.83-5.634 1.286-2.896 1.074-2.262 1.816-2.729 1.817-1.882 1.632-1.249 3.851-2.517 5.854-3.527 2.794-1.737 1.345-.948.763-.79.433-1.368-.358-1.666-.358-1.665-.234-1.567.161-1.27 1.2-1.17 1.497-.875 11.083-7.092 2.536-1.699 2.338-2.193 1.695-1.947 1.893-2.836 1.819-2.441 2.412-2.54 1.72-1.352 1.898-.974 1.503-.775 1.53-.617 1.906-.508 1.508-.269 1.704-.219 2.024-.059 2.852-.04 2.375-.031 2.057-.19 1.617-.075 1.457-.393 1.326-.635 1.008-.635 1.557-1.681 1.132-1.935.363-1.419.181-1.574.029-1.713.076-1.659.224-1.446.543-1.649.667-1.156.926-1.014 1.216-1.184 4.52-3.576L134 24.84l1.907-1.295 1.857-.849 3.285-1.477 3.599-1.441 4.501-1.742 5.368-1.817" class="stroke-sector-1"/><path fill="none" stroke="#EBCFB2" stroke-width="14" d="m154.517 16.219.093-.032 1.591-.187 1.542.415 3.88 1.962 3.479 2.164 4.086 2.659 3.748 2.785 2.444 2.283 2.956 2.912 2.756 3.313 21.873 33.774 5.234 11.557 14.576 43.746 33.127 104.019.278 1.902-.818 1.084-1.359 2.078-1.088 1.814-.363 1.726v1.801l.911 1.36 2.076 1.638 1.991 1.801 2.447 2.091 1.544 1.348.996 2.179 2.439 8.062 16.478 51.78 41.101 127.097.633 1.902 1.265 1.36 3.35 1.171 2.624 1.536.996 2.091.363 1.989-.456 1.536-.54 2.809-1.806 5.427 5.882 17.742 1.991 6.523.996 5.981 7.239 119.849.186 4.255-.363 2.996-1.665 5.92" class="stroke-sector-2"/><path fill="none" stroke="#FE0F6D" stroke-width="14" d="m343.23 618.437-1.415 5.033-.633 1.989-1.358.541-79.298-21.188-57.943-29.598-8.868-6.333-41.193-31.236-3.62-3.714-1.898-3.891-3.35-11.773-1.088-2.795-1.629-1.548-2.81-.542-29.785 11.496-1.358.365-.811-.819-13.669-58.663-2.354-6.334-20.191-40.913-11.408-18.021-5.249-9.055-2.084-4.344-.177-2.985-.093-2.985 1.089-3.35 1.358-2.808 1.992-2.443 7.155-7.96 2.801-3.539 1.451-3.614.27-2.632-.632-7.784-.819-7.418-1.443-3.803-1.544-1.99-4.978-4.345-3.983-4.534-1.898-4.346-.903-3.526.084-3.439 1.266-3.803 1.181-3.174 1.899-2.444 4.168-3.35 2.717-3.35 1.536-2.897.54-3.439-.27-3.35-.903-4.887-1.629-16.476.271-3.77.539-3.926.363-4.257-.633-3.981-11.131-40.561-.839-3.257-1.006-2.421-1.866-1.552-1.451-.542-1.266-1.36-.633-.907-1.628-8.604-.498-1.991-.904-.23-1.13-.337-.641-.252-.632-.491-.235-1.65.149-1.814.177-4.305.148-5.043.297-7.985" class="stroke-sector-3"/><path fill="none" stroke="#000" stroke-width="12" d="m38.807 167.155.818-25.811.271-7.088.357-5.862.267-3.369.616-3.456 1.144-6.038 1.613-5.926 1.83-5.634 1.286-2.896 1.074-2.262 1.816-2.729 1.817-1.882 1.632-1.249 3.851-2.517 5.854-3.527 2.794-1.737 1.345-.948.763-.79.433-1.368-.358-1.666-.358-1.665-.234-1.567.161-1.27 1.2-1.17 1.497-.875 11.083-7.092 2.536-1.699 2.338-2.193 1.695-1.947 1.893-2.836 1.819-2.441 2.412-2.54 1.72-1.352 1.898-.974 1.503-.775 1.53-.617 1.906-.508 1.508-.269 1.704-.219 2.024-.059 2.852-.04 2.375-.031 2.057-.19 1.617-.075 1.457-.393 1.326-.635 1.008-.635 1.557-1.681 1.132-1.935.363-1.419.181-1.574.029-1.713.076-1.659.224-1.446.543-1.649.667-1.156.926-1.014 1.216-1.184 4.52-3.576L134 24.84l1.907-1.295 1.857-.849 3.285-1.477 3.599-1.441 4.501-1.742 5.461-1.849 1.591-.187 1.542.415 3.88 1.962 3.479 2.164 4.086 2.659 3.748 2.785 2.444 2.283 2.956 2.912 2.756 3.313 21.873 33.774 5.234 11.557 14.576 43.746 33.127 104.019.278 1.902-.818 1.084-1.359 2.078-1.088 1.814-.363 1.726v1.801l.911 1.36 2.076 1.638 1.991 1.801 2.447 2.091 1.544 1.348.996 2.179 2.439 8.062 16.478 51.78 41.101 127.097.633 1.902 1.265 1.36 3.35 1.171 2.624 1.536.996 2.091.363 1.989-.456 1.536-.54 2.809-1.806 5.427 5.882 17.742 1.991 6.523.996 5.981 7.239 119.849.186 4.255-.363 2.996-3.08 10.953-.633 1.989-1.358.541-79.298-21.188-57.943-29.598-8.868-6.333-41.193-31.236-3.62-3.714-1.898-3.891-3.35-11.773-1.088-2.795-1.629-1.548-2.81-.542-29.785 11.496-1.358.365-.811-.819-13.669-58.663-2.354-6.334-20.191-40.913-11.408-18.021-5.249-9.055-2.084-4.344-.177-2.985-.093-2.985 1.089-3.35 1.358-2.808 1.992-2.443 7.155-7.96 2.801-3.539 1.451-3.614.27-2.632-.632-7.784-.819-7.418-1.443-3.803-1.544-1.99-4.978-4.345-3.983-4.534-1.898-4.346-.903-3.526.084-3.439 1.266-3.803 1.181-3.174 1.899-2.444 4.168-3.35 2.717-3.35 1.536-2.897.54-3.439-.27-3.35-.903-4.887-1.629-16.476.271-3.77.539-3.926.363-4.257-.633-3.981-11.131-40.561-.839-3.257-1.006-2.421-1.866-1.552-1.451-.542-1.266-1.36-.633-.907-1.628-8.604-.498-1.991-.904-.23-1.13-.337-.641-.252-.632-.491-.235-1.65.149-1.814.177-4.305.148-5.043.297-7.985"/><path d="m48.11230454 167.45010458-2.0678496-.06556893.06556892-2.0678496 2.0678496.06556893z"/><path fill="#FFF" d="m46.04445494 167.38453565-2.0678496-.06556892.06556893-2.0678496 2.0678496.06556893z"/><path d="m43.97660534 167.31896673-2.0678496-.06556892.06556893-2.0678496 2.0678496.06556892z"/><path fill="#FFF" d="m41.90875575 167.2533978-2.0678496-.06556891.06556892-2.0678496 2.0678496.06556892z"/><path d="m39.84090615 167.18782889-2.0678496-.06556893.06556893-2.0678496 2.0678496.06556893z"/><path fill="#FFF" d="m37.77305656 167.12225996-2.0678496-.06556892.06556893-2.0678496 2.0678496.06556893z"/><path d="m35.70520697 167.05669104-2.0678496-.06556892.06556892-2.0678496 2.0678496.06556893z"/><path fill="#FFF" d="m33.63735737 166.99112212-2.0678496-.06556892.06556892-2.0678496 2.0678496.06556892z"/><path d="m31.56950777 166.9255532-2.0678496-.06556892.06556893-2.0678496 2.0678496.06556892z"/><path fill="#FFF" d="m48.17787346 165.38225498-2.0678496-.06556892.06556893-2.0678496 2.0678496.06556892z"/><path d="m46.11002386 165.31668606-2.0678496-.06556893.06556893-2.0678496 2.0678496.06556893z"/><path fill="#FFF" d="m44.04217427 165.25111713-2.0678496-.06556892.06556892-2.0678496 2.0678496.06556893z"/><path d="m41.97432467 165.18554821-2.0678496-.06556892.06556892-2.0678496 2.0678496.06556892z"/><path fill="#FFF" d="m39.90647507 165.11997929-2.0678496-.06556892.06556893-2.0678496 2.0678496.06556892z"/><path d="m37.83862549 165.05441037-2.0678496-.06556892.06556892-2.0678496 2.0678496.06556892z"/><path fill="#FFF" d="m35.77077589 164.98884145-2.0678496-.06556893.06556892-2.0678496 2.0678496.06556893z"/><path d="m33.7029263 164.92327252-2.0678496-.06556892.06556892-2.0678496 2.0678496.06556893z"/><path fill="#FFF" d="m31.6350767 164.8577036-2.0678496-.06556892.06556892-2.0678496 2.0678496.06556892z"/><path d="m48.24344238 163.31440538-2.0678496-.06556892.06556893-2.0678496 2.0678496.06556892z"/><path fill="#FFF" d="m46.17559279 163.24883646-2.0678496-.06556892.06556892-2.0678496 2.0678496.06556892z"/><path d="m44.10774319 163.18326754-2.0678496-.06556893.06556892-2.0678496 2.0678496.06556893z"/><path fill="#FFF" d="m42.0398936 163.11769861-2.0678496-.06556892.06556892-2.0678496 2.0678496.06556893z"/><path d="m39.972044 163.0521297-2.0678496-.06556893.06556892-2.0678496 2.0678496.06556893z"/><path fill="#FFF" d="m37.9041944 162.98656077-2.06784959-.06556892.06556892-2.0678496 2.0678496.06556892z"/><path d="m35.83634481 162.92099185-2.0678496-.06556892.06556893-2.0678496 2.0678496.06556892z"/><path fill="#FFF" d="m33.76849521 162.85542293-2.0678496-.06556893.06556893-2.0678496 2.0678496.06556893z"/><path d="m31.70064562 162.789854-2.0678496-.06556892.06556892-2.0678496 2.0678496.06556893z"/></svg>