<svg xmlns:xlink="http://www.w3.org/1999/xlink" xmlns="http://www.w3.org/2000/svg" viewBox="0 0 383.390625 642" preserveAspectRatio="xMidYMid meet" stroke-linejoin="round" class="absolute inset-0" width="383.390625"  height="642" ><path class="stroke-sector-1" stroke-width="14px" fill="#000000" d="M38.807,167.155L39.625,141.344L39.896,134.256L40.253,128.394L40.52,125.025L41.136,121.569L42.28,115.531L43.893,109.605L45.723,103.971L47.009,101.075L48.083,98.813L49.899,96.084L51.716,94.202L53.348,92.953L57.199,90.436L63.053,86.909L65.847,85.172L67.192,84.224L67.955,83.434L68.388,82.066L68.03,80.4L67.672,78.735L67.438,77.168L67.599,75.898L68.799,74.728L70.296,73.853L81.379,66.761L83.915,65.062L86.253,62.869L87.948,60.922L89.841,58.086L91.66,55.645L94.072,53.105L95.792,51.753L97.69,50.779L99.193,50.004L100.723,49.387L102.629,48.879L104.137,48.61L105.841,48.391L107.865,48.332L110.717,48.292L113.092,48.261L115.149,48.071L116.766,47.996L118.223,47.603L119.549,46.968L120.557,46.333L122.114,44.652L123.246,42.717L123.609,41.298L123.79,39.724L123.819,38.011L123.895,36.352L124.119,34.906L124.662,33.257L125.329,32.101L126.255,31.087L127.471,29.903L131.991,26.327L134,24.84L135.907,23.545L137.764,22.696L141.049,21.219L144.648,19.778L149.149,18.036L154.517,16.219" stroke="#5757E7" fill-opacity="0"></path><path class="stroke-sector-2" stroke-width="14px" fill="#000000" d="M154.517,16.219L154.61,16.187L156.201,16L157.743,16.415L161.623,18.377L165.102,20.541L169.188,23.2L172.936,25.985L175.38,28.268L178.336,31.18L181.092,34.493L202.965,68.267L208.199,79.824L222.775,123.57L255.902,227.589L256.18,229.491L255.362,230.575L254.003,232.653L252.915,234.467L252.552,236.193L252.552,237.994L253.463,239.354L255.539,240.992L257.53,242.793L259.977,244.884L261.521,246.232L262.517,248.411L264.956,256.473L281.434,308.253L322.535,435.35L323.168,437.252L324.433,438.612L327.783,439.783L330.407,441.319L331.403,443.41L331.766,445.399L331.31,446.935L330.77,449.744L328.964,455.171L334.846,472.913L336.837,479.436L337.833,485.417L345.072,605.266L345.258,609.521L344.895,612.517L343.23,618.437" stroke="#EBCFB2" fill-opacity="0"></path><path class="stroke-sector-3" stroke-width="14px" fill="#000000" d="M343.23,618.437L341.815,623.47L341.182,625.459L339.824,626L260.526,604.812L202.583,575.214L193.715,568.881L152.522,537.645L148.902,533.931L147.004,530.04L143.654,518.267L142.566,515.472L140.937,513.924L138.127,513.382L108.342,524.878L106.984,525.243L106.173,524.424L92.504,465.761L90.15,459.427L69.959,418.514L58.551,400.493L53.302,391.438L51.218,387.094L51.041,384.109L50.948,381.124L52.037,377.774L53.395,374.966L55.387,372.523L62.542,364.563L65.343,361.024L66.794,357.41L67.064,354.778L66.432,346.994L65.613,339.576L64.17,335.773L62.626,333.783L57.648,329.438L53.665,324.904L51.767,320.558L50.864,317.032L50.948,313.593L52.214,309.79L53.395,306.616L55.294,304.172L59.462,300.822L62.179,297.472L63.715,294.575L64.255,291.136L63.985,287.786L63.082,282.899L61.453,266.423L61.724,262.653L62.263,258.727L62.626,254.47L61.993,250.489L50.862,209.928L50.023,206.671L49.017,204.25L47.151,202.698L45.7,202.156L44.434,200.796L43.801,199.889L42.173,191.285L41.675,189.294L40.771,189.064L39.641,188.727L39,188.475L38.368,187.984L38.133,186.334L38.282,184.52L38.459,180.215L38.607,175.172L38.904,167.187" stroke="#FE0F6D" fill-opacity="0"></path><path stroke="#000000" stroke-width="12px" fill="#000000" d="M38.807,167.155L39.625,141.344L39.896,134.256L40.253,128.394L40.52,125.025L41.136,121.569L42.28,115.531L43.893,109.605L45.723,103.971L47.009,101.075L48.083,98.813L49.899,96.084L51.716,94.202L53.348,92.953L57.199,90.436L63.053,86.909L65.847,85.172L67.192,84.224L67.955,83.434L68.388,82.066L68.03,80.4L67.672,78.735L67.438,77.168L67.599,75.898L68.799,74.728L70.296,73.853L81.379,66.761L83.915,65.062L86.253,62.869L87.948,60.922L89.841,58.086L91.66,55.645L94.072,53.105L95.792,51.753L97.69,50.779L99.193,50.004L100.723,49.387L102.629,48.879L104.137,48.61L105.841,48.391L107.865,48.332L110.717,48.292L113.092,48.261L115.149,48.071L116.766,47.996L118.223,47.603L119.549,46.968L120.557,46.333L122.114,44.652L123.246,42.717L123.609,41.298L123.79,39.724L123.819,38.011L123.895,36.352L124.119,34.906L124.662,33.257L125.329,32.101L126.255,31.087L127.471,29.903L131.991,26.327L134,24.84L135.907,23.545L137.764,22.696L141.049,21.219L144.648,19.778L149.149,18.036L154.61,16.187L156.201,16L157.743,16.415L161.623,18.377L165.102,20.541L169.188,23.2L172.936,25.985L175.38,28.268L178.336,31.18L181.092,34.493L202.965,68.267L208.199,79.824L222.775,123.57L255.902,227.589L256.18,229.491L255.362,230.575L254.003,232.653L252.915,234.467L252.552,236.193L252.552,237.994L253.463,239.354L255.539,240.992L257.53,242.793L259.977,244.884L261.521,246.232L262.517,248.411L264.956,256.473L281.434,308.253L322.535,435.35L323.168,437.252L324.433,438.612L327.783,439.783L330.407,441.319L331.403,443.41L331.766,445.399L331.31,446.935L330.77,449.744L328.964,455.171L334.846,472.913L336.837,479.436L337.833,485.417L345.072,605.266L345.258,609.521L344.895,612.517L341.815,623.47L341.182,625.459L339.824,626L260.526,604.812L202.583,575.214L193.715,568.881L152.522,537.645L148.902,533.931L147.004,530.04L143.654,518.267L142.566,515.472L140.937,513.924L138.127,513.382L108.342,524.878L106.984,525.243L106.173,524.424L92.504,465.761L90.15,459.427L69.959,418.514L58.551,400.493L53.302,391.438L51.218,387.094L51.041,384.109L50.948,381.124L52.037,377.774L53.395,374.966L55.387,372.523L62.542,364.563L65.343,361.024L66.794,357.41L67.064,354.778L66.432,346.994L65.613,339.576L64.17,335.773L62.626,333.783L57.648,329.438L53.665,324.904L51.767,320.558L50.864,317.032L50.948,313.593L52.214,309.79L53.395,306.616L55.294,304.172L59.462,300.822L62.179,297.472L63.715,294.575L64.255,291.136L63.985,287.786L63.082,282.899L61.453,266.423L61.724,262.653L62.263,258.727L62.626,254.47L61.993,250.489L50.862,209.928L50.023,206.671L49.017,204.25L47.151,202.698L45.7,202.156L44.434,200.796L43.801,199.889L42.173,191.285L41.675,189.294L40.771,189.064L39.641,188.727L39,188.475L38.368,187.984L38.133,186.334L38.282,184.52L38.459,180.215L38.607,175.172L38.904,167.187" fill-opacity="0"></path><g transform="translate(38.8069813565121, 167.15504442562815) rotate(181.8161689251698)"><rect x="-9.31" y="0" width="2.068888888888889" height="2.068888888888889" fill="black"></rect><rect x="-7.2411111111111115" y="0" width="2.068888888888889" height="2.068888888888889" fill="#FFFFFF"></rect><rect x="-5.1722222222222225" y="0" width="2.068888888888889" height="2.068888888888889" fill="black"></rect><rect x="-3.1033333333333335" y="0" width="2.068888888888889" height="2.068888888888889" fill="#FFFFFF"></rect><rect x="-1.0344444444444445" y="0" width="2.068888888888889" height="2.068888888888889" fill="black"></rect><rect x="1.0344444444444445" y="0" width="2.068888888888889" height="2.068888888888889" fill="#FFFFFF"></rect><rect x="3.1033333333333335" y="0" width="2.068888888888889" height="2.068888888888889" fill="black"></rect><rect x="5.1722222222222225" y="0" width="2.068888888888889" height="2.068888888888889" fill="#FFFFFF"></rect><rect x="7.2411111111111115" y="0" width="2.068888888888889" height="2.068888888888889" fill="black"></rect><rect x="-9.31" y="2.068888888888889" width="2.068888888888889" height="2.068888888888889" fill="#FFFFFF"></rect><rect x="-7.2411111111111115" y="2.068888888888889" width="2.068888888888889" height="2.068888888888889" fill="black"></rect><rect x="-5.1722222222222225" y="2.068888888888889" width="2.068888888888889" height="2.068888888888889" fill="#FFFFFF"></rect><rect x="-3.1033333333333335" y="2.068888888888889" width="2.068888888888889" height="2.068888888888889" fill="black"></rect><rect x="-1.0344444444444445" y="2.068888888888889" width="2.068888888888889" height="2.068888888888889" fill="#FFFFFF"></rect><rect x="1.0344444444444445" y="2.068888888888889" width="2.068888888888889" height="2.068888888888889" fill="black"></rect><rect x="3.1033333333333335" y="2.068888888888889" width="2.068888888888889" height="2.068888888888889" fill="#FFFFFF"></rect><rect x="5.1722222222222225" y="2.068888888888889" width="2.068888888888889" height="2.068888888888889" fill="black"></rect><rect x="7.2411111111111115" y="2.068888888888889" width="2.068888888888889" height="2.068888888888889" fill="#FFFFFF"></rect><rect x="-9.31" y="4.137777777777778" width="2.068888888888889" height="2.068888888888889" fill="black"></rect><rect x="-7.2411111111111115" y="4.137777777777778" width="2.068888888888889" height="2.068888888888889" fill="#FFFFFF"></rect><rect x="-5.1722222222222225" y="4.137777777777778" width="2.068888888888889" height="2.068888888888889" fill="black"></rect><rect x="-3.1033333333333335" y="4.137777777777778" width="2.068888888888889" height="2.068888888888889" fill="#FFFFFF"></rect><rect x="-1.0344444444444445" y="4.137777777777778" width="2.068888888888889" height="2.068888888888889" fill="black"></rect><rect x="1.0344444444444445" y="4.137777777777778" width="2.068888888888889" height="2.068888888888889" fill="#FFFFFF"></rect><rect x="3.1033333333333335" y="4.137777777777778" width="2.068888888888889" height="2.068888888888889" fill="black"></rect><rect x="5.1722222222222225" y="4.137777777777778" width="2.068888888888889" height="2.068888888888889" fill="#FFFFFF"></rect><rect x="7.2411111111111115" y="4.137777777777778" width="2.068888888888889" height="2.068888888888889" fill="black"></rect></g></svg>