<svg xmlns="http://www.w3.org/2000/svg" stroke-linejoin="round" class="absolute inset-0" viewBox="0 0 383.390625 642"><path fill="none" stroke="#5757E7" stroke-width="14" d="m50.296 441.489 13.999 58.258 11.881 46.956 5.846 22.44 2.64 9.995 3.394 7.166 6.034 6.977 6.223 4.149 6.412 1.697 5.846-.377 5.469-2.263 5.091-4.338 6.412-6.223 5.425-5.845 4.714-4.903 3.96-2.263 4.903-1.132 3.96.189 5.658 1.508 5.657 2.829 17.349 10.372 10.283 3.394 10.183 1.32 10.56.189 8.675-.755 11.126-3.017 8.297-3.394 7.92-5.092 7.732-4.903 6.412-6.6 7.354-8.674 6.412-11.126 3.959-8.125 3.017-9.24 6.223-21.875 21.684-81.977 16.972-65.986 14.143-52.384.595-2.156" class="stroke-sector-1"/><path fill="none" stroke="#EBCFB2" stroke-width="14" d="m342.716 306.28 19.772-71.738 2.64-10.56 2.263-9.806-.566-6.223-2.074-5.846-3.961-5.28-5.091-4.149-7.355-2.452-45.447-9.051-7.92-.377-9.806 1.32-10.371 2.451-9.618 4.526-6.963 4.714-7.732 6.412-9.429 11.126-22.063 29.332-34.698 49.03-25.236 33.378-10.749 15.463-9.24 11.692-8.863 7.543-12.258 4.148-8.297.189-8.297-.754-9.953-2.28-10.124-3.577-9.41-5.691-6.622-5.887L61 337.176l-2.7-8.652-6.126-27.283-2.8-17.512-1.614-8.756.528-8.757.537-4.531 2.68-5.388 4.477-3.877 5.879-1.51 5.723.744 5.432 2.942 12.567 8.752 6.507 3.024 8.625 1.001 6.103-1.29 6.377-3.715 4.468-5.182 4.024-7.452.989-7.051-.273-5.828-3.462-6.751-7.102-9.003-14.295-14.222-8.554-9.029-5.301-7.584-5.208-9.932-3.116-8.546-2.581-10.669-2.825-11.985-.645-9.573 2.491-7.601 3.676-3.417 5.674-1.964 5.652 1.32 6.662 5.521 16.377 20.154 15.863 18.007 15.861 9.515 11.159 2.469 12.183.422 11.415-2.136 9.88-4.183 13.11-9.899 13.973-18.508 17.5-28.399 11.695-19.771" class="stroke-sector-2"/><path fill="none" stroke="#FE0F6D" stroke-width="14" d="m242.485 101.091 9.643-16.302 2.77-6.662.423-5.65-2.901-4.371-4.521-4.999-8.527-4.546-18.247-6.508-20.294-7.02-10.701-2.16-27.605 3.269-19.43 3.681-19.344 6.928-18.832 8.976L82.09 79.072l-12.915 9.81-9.334 11.216-9.527 20.188-5.787 20.838-3.735 17.018-3.735 19.064-5.424 27.385-4.708 18.959-8.289 30.981-2.61 15.491L16 284.418l.499 13.593 3.574 13.191 4.601 22.967 9.335 44.098 15.853 62.45" class="stroke-sector-3"/><path fill="none" stroke="#000" stroke-width="12" d="m50.296 441.489 13.999 58.258 11.881 46.956 5.846 22.44 2.64 9.995 3.394 7.166 6.034 6.977 6.223 4.149 6.412 1.697 5.846-.377 5.469-2.263 5.091-4.338 6.412-6.223 5.425-5.845 4.714-4.903 3.96-2.263 4.903-1.132 3.96.189 5.658 1.508 5.657 2.829 17.349 10.372 10.283 3.394 10.183 1.32 10.56.189 8.675-.755 11.126-3.017 8.297-3.394 7.92-5.092 7.732-4.903 6.412-6.6 7.354-8.674 6.412-11.126 3.959-8.125 3.017-9.24 6.223-21.875 21.684-81.977 16.972-65.986 14.143-52.384 20.367-73.894 2.64-10.56 2.263-9.806-.566-6.223-2.074-5.846-3.961-5.28-5.091-4.149-7.355-2.452-45.447-9.051-7.92-.377-9.806 1.32-10.371 2.451-9.618 4.526-6.963 4.714-7.732 6.412-9.429 11.126-22.063 29.332-34.698 49.03-25.236 33.378-10.749 15.463-9.24 11.692-8.863 7.543-12.258 4.148-8.297.189-8.297-.754-9.953-2.28-10.124-3.577-9.41-5.691-6.622-5.887L61 337.176l-2.7-8.652-6.126-27.283-2.8-17.512-1.614-8.756.528-8.757.537-4.531 2.68-5.388 4.477-3.877 5.879-1.51 5.723.744 5.432 2.942 12.567 8.752 6.507 3.024 8.625 1.001 6.103-1.29 6.377-3.715 4.468-5.182 4.024-7.452.989-7.051-.273-5.828-3.462-6.751-7.102-9.003-14.295-14.222-8.554-9.029-5.301-7.584-5.208-9.932-3.116-8.546-2.581-10.669-2.825-11.985-.645-9.573 2.491-7.601 3.676-3.417 5.674-1.964 5.652 1.32 6.662 5.521 16.377 20.154 15.863 18.007 15.861 9.515 11.159 2.469 12.183.422 11.415-2.136 9.88-4.183 13.11-9.899 13.973-18.508 17.5-28.399 21.338-36.073 2.77-6.662.423-5.65-2.901-4.371-4.521-4.999-8.527-4.546-18.247-6.508-20.294-7.02-10.701-2.16-27.605 3.269-19.43 3.681-19.344 6.928-18.832 8.976L82.09 79.072l-12.915 9.81-9.334 11.216-9.527 20.188-5.787 20.838-3.735 17.018-3.735 19.064-5.424 27.385-4.708 18.959-8.289 30.981-2.61 15.491L16 284.418l.499 13.593 3.574 13.191 4.601 22.967 9.335 44.098 15.853 62.45"/><path d="m41.2437647 443.66441943 2.01162476-.48339125.48339125 2.01162475-2.01162475.48339125z"/><path fill="#FFF" d="m43.25538946 443.18102818 2.01162475-.48339125.48339125 2.01162475-2.01162475.48339125z"/><path d="m45.2670142 442.69763693 2.01162476-.48339125.48339125 2.01162475-2.01162475.48339125z"/><path fill="#FFF" d="m47.27863896 442.21424568 2.01162475-.48339125.48339125 2.01162475-2.01162475.48339125z"/><path d="m49.2902637 441.73085443 2.01162476-.48339126.48339125 2.01162475-2.01162475.48339126z"/><path fill="#FFF" d="m51.30188845 441.24746318 2.01162475-.48339126.48339125 2.01162476-2.01162475.48339125z"/><path d="m53.3135132 440.76407192 2.01162475-.48339125.48339125 2.01162475-2.01162475.48339126z"/><path fill="#FFF" d="m55.32513795 440.28068067 2.01162475-.48339125.48339125 2.01162475-2.01162475.48339125z"/><path d="m57.3367627 439.79728942 2.01162475-.48339125.48339125 2.01162475-2.01162475.48339125z"/><path fill="#FFF" d="m41.72715596 445.67604418 2.01162475-.48339125.48339125 2.01162475-2.01162475.48339125z"/><path d="m43.7387807 445.19265293 2.01162476-.48339125.48339125 2.01162475-2.01162475.48339125z"/><path fill="#FFF" d="m45.75040546 444.70926168 2.01162475-.48339125.48339125 2.01162475-2.01162475.48339125z"/><path d="m47.76203021 444.22587043 2.01162475-.48339125.48339125 2.01162475-2.01162475.48339125z"/><path fill="#FFF" d="m49.77365496 443.74247918 2.01162475-.48339126.48339125 2.01162476-2.01162475.48339125z"/><path d="m51.7852797 443.25908793 2.01162475-.48339125.48339125 2.01162475-2.01162475.48339125z"/><path fill="#FFF" d="m53.79690445 442.77569668 2.01162475-.48339126.48339125 2.01162475-2.01162475.48339126z"/><path d="m55.8085292 442.29230542 2.01162475-.48339125.48339125 2.01162475-2.01162475.48339125z"/><path fill="#FFF" d="m57.82015395 441.80891417 2.01162475-.48339125.48339126 2.01162475-2.01162476.48339125z"/><path d="m42.21054721 447.68766893 2.01162475-.48339125.48339125 2.01162475-2.01162475.48339125z"/><path fill="#FFF" d="m44.22217196 447.20427768 2.01162475-.48339125.48339125 2.01162475-2.01162475.48339125z"/><path d="m46.23379671 446.72088643 2.01162475-.48339125.48339125 2.01162475-2.01162475.48339125z"/><path fill="#FFF" d="m48.24542146 446.23749518 2.01162475-.48339125.48339125 2.01162475-2.01162475.48339125z"/><path d="m50.25704621 445.75410393 2.01162475-.48339125.48339125 2.01162475-2.01162475.48339125z"/><path fill="#FFF" d="m52.26867095 445.27071268 2.01162475-.48339125.48339125 2.01162475-2.01162475.48339125z"/><path d="m54.2802957 444.78732143 2.01162475-.48339126.48339126 2.01162475-2.01162476.48339126z"/><path fill="#FFF" d="m56.29192045 444.30393017 2.01162475-.48339125.48339126 2.01162475-2.01162475.48339125z"/><path d="m58.3035452 443.82053892 2.01162476-.48339125.48339125 2.01162475-2.01162475.48339125z"/></svg>