<svg xmlns="http://www.w3.org/2000/svg" stroke-linejoin="round" class="absolute inset-0" viewBox="0 0 383.390625 642"><path fill="none" stroke="#5757E7" stroke-width="14" d="m38.134 347.595 52.634 41.702 37.497 28.44 2.574 1.788 2.36 1.43 1.716.787 1.931.071 1.716-.5.715-1.216.429-2.074-.858-3.217-8.438-23.884-.93-4.506-.204-2.481.215-3.361.5-2.217 1.002-3.146 1.573-2.646 1.43-2.288 2.074-1.931 1.787-1.645 2.718-1.859 25.503-15.756 2.503-1.502 1.716-1.859 1.573-2.431 1.788-4.148 1.859-5.005 1.455-2.956 1.717-2.574 2.288-1.788 2.717-1.072 3.218-1.073.951-.389" class="stroke-sector-1"/><path fill="none" stroke="#EBCFB2" stroke-width="14" d="m187.863 324.289 2.196-.898 2.002-1.502 1.859-1.787 1.43-3.004.644-2.717.643-5.006.939-4.558.644-2.503 1.787-2.861 2.503-2.645 3.147-2.503 3.646-2.145 3.361-1.359 2.718-.858 3.218-.072 3.021.358 3.933 1.43 5.935 2.86 9.011 4.219 2.073.787 1.359.143 2.145-.644 1.859-1.287 3.79-2.503 2.861-2.359 2.932-3.29 2.574-3.146 2.168-2.786 1.644-1.502 2.074-1.144 2.86-.501h2.146l2.36.572 2.431 1.145 1.716 1.43 1.502 1.787 1.057 2.074 1.287 1.645 1.359.858 1.788.429 2.359-.286 31.447-6.793 2.003-1.001 1.787-.93 1.144-1.359 23.213-28.713 18.164-22.525 1.215-2.002 1.145-2.217.429-1.859-.429-1.43-1.574-.858-1.358-.286-2.432.572-29.247 9.582-15.875 4.576-49.974 12.085-29.427 5.864-28.032 4.219-28.015 3.152" class="stroke-sector-2"/><path fill="none" stroke="#FE0F6D" stroke-width="14" d="m181.028 260.237-26.002 2.926-5.506.787-3.289.358-1.717.357-1.072.93-.572 1.072.214 1.931 1.287 1.859 9.797 12.5 9.296 14.731.787 1.502.286 1.501-.286 1.502-1.073 1.43-2.074.93-1.716.214-7.866-.643-2.646-.429-2.145-1.001-1.43-1.359-.858-2.074-.644-3.003-1.228-2.217-.858-1.788-6.006-7.294-1.788-1.716-1.859-.858-2.861-.644-3.146-.214h-2.145l-1.717.5-.715.787-.357 1.073.143 1.144.572 2.217 15.446 26.149 1.287 2.861.787 2.789.143 2.646-.215 2.788-1.073 3.719-2.589 6.318-1.216 1.93-1.859 1.86-3.218 1.644-11.012 5.006-2.503.358h-2.86l-3.79-.501-6.992-2.217-4.505-2.074-2.717-2.145-2.36-2.503-2.789-4.004-6.579-9.296-13.322-16.675-1.931-.929-1.645-.286-2.002.429-3.218.929-43.815 19.236-.858 1.073-.429 1.859.143 1.645 1.573 1.788 3.29 2.574 16.939 13.296" class="stroke-sector-3"/><path fill="none" stroke="#000" stroke-width="12" d="m38.134 347.595 52.634 41.702 37.497 28.44 2.574 1.788 2.36 1.43 1.716.787 1.931.071 1.716-.5.715-1.216.429-2.074-.858-3.217-8.438-23.884-.93-4.506-.204-2.481.215-3.361.5-2.217 1.002-3.146 1.573-2.646 1.43-2.288 2.074-1.931 1.787-1.645 2.718-1.859 25.503-15.756 2.503-1.502 1.716-1.859 1.573-2.431 1.788-4.148 1.859-5.005 1.455-2.956 1.717-2.574 2.288-1.788 2.717-1.072 3.218-1.073 3.147-1.287 2.002-1.502 1.859-1.787 1.43-3.004.644-2.717.643-5.006.939-4.558.644-2.503 1.787-2.861 2.503-2.645 3.147-2.503 3.646-2.145 3.361-1.359 2.718-.858 3.218-.072 3.021.358 3.933 1.43 5.935 2.86 9.011 4.219 2.073.787 1.359.143 2.145-.644 1.859-1.287 3.79-2.503 2.861-2.359 2.932-3.29 2.574-3.146 2.168-2.786 1.644-1.502 2.074-1.144 2.86-.501h2.146l2.36.572 2.431 1.145 1.716 1.43 1.502 1.787 1.057 2.074 1.287 1.645 1.359.858 1.788.429 2.359-.286 31.447-6.793 2.003-1.001 1.787-.93 1.144-1.359 23.213-28.713 18.164-22.525 1.215-2.002 1.145-2.217.429-1.859-.429-1.43-1.574-.858-1.358-.286-2.432.572-29.247 9.582-15.875 4.576-49.974 12.085-29.427 5.864-28.032 4.219-54.017 6.078-5.506.787-3.289.358-1.717.357-1.072.93-.572 1.072.214 1.931 1.287 1.859 9.797 12.5 9.296 14.731.787 1.502.286 1.501-.286 1.502-1.073 1.43-2.074.93-1.716.214-7.866-.643-2.646-.429-2.145-1.001-1.43-1.359-.858-2.074-.644-3.003-1.228-2.217-.858-1.788-6.006-7.294-1.788-1.716-1.859-.858-2.861-.644-3.146-.214h-2.145l-1.717.5-.715.787-.357 1.073.143 1.144.572 2.217 15.446 26.149 1.287 2.861.787 2.789.143 2.646-.215 2.788-1.073 3.719-2.589 6.318-1.216 1.93-1.859 1.86-3.218 1.644-11.012 5.006-2.503.358h-2.86l-3.79-.501-6.992-2.217-4.505-2.074-2.717-2.145-2.36-2.503-2.789-4.004-6.579-9.296-13.322-16.675-1.931-.929-1.645-.286-2.002.429-3.218.929-43.815 19.236-.858 1.073-.429 1.859.143 1.645 1.573 1.788 3.29 2.574 16.939 13.296"/><path d="m32.35227611 354.89186262 1.2847959-1.62160439 1.62160437 1.2847959-1.28479589 1.62160437z"/><path fill="#FFF" d="m33.637072 353.27025823 1.28479589-1.62160438 1.62160438 1.2847959-1.28479589 1.62160437z"/><path d="m34.92186789 351.64865385 1.28479588-1.62160438 1.62160439 1.28479589-1.2847959 1.62160438z"/><path fill="#FFF" d="m36.20666377 350.02704947 1.2847959-1.62160438 1.62160437 1.28479589-1.28479588 1.62160438z"/><path d="m37.49145966 348.4054451 1.28479589-1.62160439 1.62160438 1.28479589-1.28479589 1.62160438z"/><path fill="#FFF" d="m38.77625554 346.78384072 1.28479589-1.62160438 1.62160438 1.28479588-1.28479589 1.62160439z"/><path d="m40.06105143 345.16223634 1.28479589-1.62160438 1.62160438 1.28479588-1.28479589 1.62160438z"/><path fill="#FFF" d="m41.34584732 343.54063196 1.28479588-1.62160438 1.62160438 1.28479588-1.28479588 1.62160438z"/><path d="m42.6306432 341.91902758 1.28479589-1.62160438 1.62160438 1.28479588-1.28479589 1.62160438z"/><path fill="#FFF" d="m33.9738805 356.1766585 1.28479588-1.62160438 1.62160438 1.28479589-1.28479588 1.62160438z"/><path d="m35.25867638 354.55505412 1.28479589-1.62160438 1.62160438 1.28479589-1.28479589 1.62160438z"/><path fill="#FFF" d="m36.54347227 352.93344974 1.28479589-1.62160438 1.62160438 1.28479589-1.28479589 1.62160438z"/><path d="m37.82826816 351.31184536 1.28479588-1.62160438 1.62160438 1.28479589-1.28479588 1.62160438z"/><path fill="#FFF" d="m39.11306404 349.69024098 1.28479589-1.62160438 1.62160438 1.28479588-1.28479589 1.62160439z"/><path d="m40.39785992 348.0686366 1.28479589-1.62160438 1.62160438 1.2847959-1.28479589 1.62160437z"/><path fill="#FFF" d="m41.68265581 346.44703222 1.28479589-1.62160438 1.62160438 1.2847959-1.28479589 1.62160437z"/><path d="m42.9674517 344.82542784 1.28479588-1.62160438 1.62160438 1.28479589-1.28479588 1.62160438z"/><path fill="#FFF" d="m44.25224758 343.20382346 1.28479589-1.62160438 1.62160438 1.28479589-1.28479589 1.62160438z"/><path d="m35.59548488 357.46145439 1.28479588-1.62160438 1.62160438 1.28479589-1.28479588 1.62160438z"/><path fill="#FFF" d="m36.88028076 355.83985 1.28479589-1.62160437 1.62160438 1.28479588-1.28479589 1.62160439z"/><path d="m38.16507665 354.21824563 1.28479589-1.62160438 1.62160438 1.28479588-1.28479589 1.62160438z"/><path fill="#FFF" d="m39.44987254 352.59664125 1.28479588-1.62160438 1.62160438 1.28479588-1.28479588 1.62160438z"/><path d="m40.73466842 350.97503687 1.28479589-1.62160439 1.62160438 1.2847959-1.28479589 1.62160437z"/><path fill="#FFF" d="m42.0194643 349.3534325 1.2847959-1.62160439 1.62160437 1.28479589-1.28479589 1.62160438z"/><path d="m43.3042602 347.73182811 1.28479588-1.62160438 1.62160438 1.28479589-1.28479589 1.62160438z"/><path fill="#FFF" d="m44.58905608 346.11022373 1.28479588-1.62160438 1.62160439 1.28479589-1.2847959 1.62160438z"/><path d="m45.87385196 344.48861935 1.2847959-1.62160438 1.62160437 1.28479589-1.28479588 1.62160438z"/></svg>