<svg xmlns:xlink="http://www.w3.org/1999/xlink" xmlns="http://www.w3.org/2000/svg" viewBox="0 0 383.390625 642" preserveAspectRatio="xMidYMid meet" stroke-linejoin="round" class="absolute inset-0" width="383.390625"  height="642" ><path class="stroke-sector-1" stroke-width="14px" fill="#000000" d="M38.134,347.595L90.768,389.297L128.265,417.737L130.839,419.525L133.199,420.955L134.915,421.742L136.846,421.813L138.562,421.313L139.277,420.097L139.706,418.023L138.848,414.806L130.41,390.922L129.48,386.416L129.276,383.935L129.491,380.574L129.991,378.357L130.993,375.211L132.566,372.565L133.996,370.277L136.07,368.346L137.857,366.701L140.575,364.842L166.078,349.086L168.581,347.584L170.297,345.725L171.87,343.294L173.658,339.146L175.517,334.141L176.972,331.185L178.689,328.611L180.977,326.823L183.694,325.751L186.912,324.678L187.863,324.289" stroke="#5757E7" fill-opacity="0"></path><path class="stroke-sector-2" stroke-width="14px" fill="#000000" d="M187.863,324.289L190.059,323.391L192.061,321.889L193.92,320.102L195.35,317.098L195.994,314.381L196.637,309.375L197.576,304.817L198.22,302.314L200.007,299.453L202.51,296.808L205.657,294.305L209.303,292.16L212.664,290.801L215.382,289.943L218.6,289.871L221.621,290.229L225.554,291.659L231.489,294.519L240.5,298.738L242.573,299.525L243.932,299.668L246.077,299.024L247.936,297.737L251.726,295.234L254.587,292.875L257.519,289.585L260.093,286.439L262.261,283.653L263.905,282.151L265.979,281.007L268.839,280.506L270.985,280.506L273.345,281.078L275.776,282.223L277.492,283.653L278.994,285.44L280.051,287.514L281.338,289.159L282.697,290.017L284.485,290.446L286.844,290.16L318.291,283.367L320.294,282.366L322.081,281.436L323.225,280.077L346.438,251.364L364.602,228.839L365.817,226.837L366.962,224.62L367.391,222.761L366.962,221.331L365.388,220.473L364.03,220.187L361.598,220.759L332.351,230.341L316.476,234.917L266.502,247.002L237.075,252.866L209.043,257.085L181.028,260.237" stroke="#EBCFB2" fill-opacity="0"></path><path class="stroke-sector-3" stroke-width="14px" fill="#000000" d="M181.028,260.237L155.026,263.163L149.52,263.95L146.231,264.308L144.514,264.665L143.442,265.595L142.87,266.667L143.084,268.598L144.371,270.457L154.168,282.957L163.464,297.688L164.251,299.19L164.537,300.691L164.251,302.193L163.178,303.623L161.104,304.553L159.388,304.767L151.522,304.124L148.876,303.695L146.731,302.694L145.301,301.335L144.443,299.261L143.799,296.258L142.571,294.041L141.713,292.253L135.707,284.959L133.919,283.243L132.06,282.385L129.199,281.741L126.053,281.527L123.908,281.527L122.191,282.027L121.476,282.814L121.119,283.887L121.262,285.031L121.834,287.248L137.28,313.397L138.567,316.258L139.354,319.047L139.497,321.693L139.282,324.481L138.209,328.2L135.62,334.518L134.404,336.448L132.545,338.308L129.327,339.952L118.315,344.958L115.812,345.316L112.952,345.316L109.162,344.815L102.17,342.598L97.665,340.524L94.948,338.379L92.588,335.876L89.799,331.872L83.22,322.576L69.898,305.901L67.967,304.972L66.322,304.686L64.32,305.115L61.102,306.044L17.287,325.28L16.429,326.353L16,328.212L16.143,329.857L17.716,331.645L21.006,334.219L37.945,347.515" stroke="#FE0F6D" fill-opacity="0"></path><path stroke="#000000" stroke-width="12px" fill="#000000" d="M38.134,347.595L90.768,389.297L128.265,417.737L130.839,419.525L133.199,420.955L134.915,421.742L136.846,421.813L138.562,421.313L139.277,420.097L139.706,418.023L138.848,414.806L130.41,390.922L129.48,386.416L129.276,383.935L129.491,380.574L129.991,378.357L130.993,375.211L132.566,372.565L133.996,370.277L136.07,368.346L137.857,366.701L140.575,364.842L166.078,349.086L168.581,347.584L170.297,345.725L171.87,343.294L173.658,339.146L175.517,334.141L176.972,331.185L178.689,328.611L180.977,326.823L183.694,325.751L186.912,324.678L190.059,323.391L192.061,321.889L193.92,320.102L195.35,317.098L195.994,314.381L196.637,309.375L197.576,304.817L198.22,302.314L200.007,299.453L202.51,296.808L205.657,294.305L209.303,292.16L212.664,290.801L215.382,289.943L218.6,289.871L221.621,290.229L225.554,291.659L231.489,294.519L240.5,298.738L242.573,299.525L243.932,299.668L246.077,299.024L247.936,297.737L251.726,295.234L254.587,292.875L257.519,289.585L260.093,286.439L262.261,283.653L263.905,282.151L265.979,281.007L268.839,280.506L270.985,280.506L273.345,281.078L275.776,282.223L277.492,283.653L278.994,285.44L280.051,287.514L281.338,289.159L282.697,290.017L284.485,290.446L286.844,290.16L318.291,283.367L320.294,282.366L322.081,281.436L323.225,280.077L346.438,251.364L364.602,228.839L365.817,226.837L366.962,224.62L367.391,222.761L366.962,221.331L365.388,220.473L364.03,220.187L361.598,220.759L332.351,230.341L316.476,234.917L266.502,247.002L237.075,252.866L209.043,257.085L155.026,263.163L149.52,263.95L146.231,264.308L144.514,264.665L143.442,265.595L142.87,266.667L143.084,268.598L144.371,270.457L154.168,282.957L163.464,297.688L164.251,299.19L164.537,300.691L164.251,302.193L163.178,303.623L161.104,304.553L159.388,304.767L151.522,304.124L148.876,303.695L146.731,302.694L145.301,301.335L144.443,299.261L143.799,296.258L142.571,294.041L141.713,292.253L135.707,284.959L133.919,283.243L132.06,282.385L129.199,281.741L126.053,281.527L123.908,281.527L122.191,282.027L121.476,282.814L121.119,283.887L121.262,285.031L121.834,287.248L137.28,313.397L138.567,316.258L139.354,319.047L139.497,321.693L139.282,324.481L138.209,328.2L135.62,334.518L134.404,336.448L132.545,338.308L129.327,339.952L118.315,344.958L115.812,345.316L112.952,345.316L109.162,344.815L102.17,342.598L97.665,340.524L94.948,338.379L92.588,335.876L89.799,331.872L83.22,322.576L69.898,305.901L67.967,304.972L66.322,304.686L64.32,305.115L61.102,306.044L17.287,325.28L16.429,326.353L16,328.212L16.143,329.857L17.716,331.645L21.006,334.219L37.945,347.515" fill-opacity="0"></path><g transform="translate(38.133857601787895, 347.594642905402) rotate(-51.61024209957546)"><rect x="-9.31" y="0" width="2.068888888888889" height="2.068888888888889" fill="black"></rect><rect x="-7.2411111111111115" y="0" width="2.068888888888889" height="2.068888888888889" fill="#FFFFFF"></rect><rect x="-5.1722222222222225" y="0" width="2.068888888888889" height="2.068888888888889" fill="black"></rect><rect x="-3.1033333333333335" y="0" width="2.068888888888889" height="2.068888888888889" fill="#FFFFFF"></rect><rect x="-1.0344444444444445" y="0" width="2.068888888888889" height="2.068888888888889" fill="black"></rect><rect x="1.0344444444444445" y="0" width="2.068888888888889" height="2.068888888888889" fill="#FFFFFF"></rect><rect x="3.1033333333333335" y="0" width="2.068888888888889" height="2.068888888888889" fill="black"></rect><rect x="5.1722222222222225" y="0" width="2.068888888888889" height="2.068888888888889" fill="#FFFFFF"></rect><rect x="7.2411111111111115" y="0" width="2.068888888888889" height="2.068888888888889" fill="black"></rect><rect x="-9.31" y="2.068888888888889" width="2.068888888888889" height="2.068888888888889" fill="#FFFFFF"></rect><rect x="-7.2411111111111115" y="2.068888888888889" width="2.068888888888889" height="2.068888888888889" fill="black"></rect><rect x="-5.1722222222222225" y="2.068888888888889" width="2.068888888888889" height="2.068888888888889" fill="#FFFFFF"></rect><rect x="-3.1033333333333335" y="2.068888888888889" width="2.068888888888889" height="2.068888888888889" fill="black"></rect><rect x="-1.0344444444444445" y="2.068888888888889" width="2.068888888888889" height="2.068888888888889" fill="#FFFFFF"></rect><rect x="1.0344444444444445" y="2.068888888888889" width="2.068888888888889" height="2.068888888888889" fill="black"></rect><rect x="3.1033333333333335" y="2.068888888888889" width="2.068888888888889" height="2.068888888888889" fill="#FFFFFF"></rect><rect x="5.1722222222222225" y="2.068888888888889" width="2.068888888888889" height="2.068888888888889" fill="black"></rect><rect x="7.2411111111111115" y="2.068888888888889" width="2.068888888888889" height="2.068888888888889" fill="#FFFFFF"></rect><rect x="-9.31" y="4.137777777777778" width="2.068888888888889" height="2.068888888888889" fill="black"></rect><rect x="-7.2411111111111115" y="4.137777777777778" width="2.068888888888889" height="2.068888888888889" fill="#FFFFFF"></rect><rect x="-5.1722222222222225" y="4.137777777777778" width="2.068888888888889" height="2.068888888888889" fill="black"></rect><rect x="-3.1033333333333335" y="4.137777777777778" width="2.068888888888889" height="2.068888888888889" fill="#FFFFFF"></rect><rect x="-1.0344444444444445" y="4.137777777777778" width="2.068888888888889" height="2.068888888888889" fill="black"></rect><rect x="1.0344444444444445" y="4.137777777777778" width="2.068888888888889" height="2.068888888888889" fill="#FFFFFF"></rect><rect x="3.1033333333333335" y="4.137777777777778" width="2.068888888888889" height="2.068888888888889" fill="black"></rect><rect x="5.1722222222222225" y="4.137777777777778" width="2.068888888888889" height="2.068888888888889" fill="#FFFFFF"></rect><rect x="7.2411111111111115" y="4.137777777777778" width="2.068888888888889" height="2.068888888888889" fill="black"></rect></g></svg>