<svg xmlns="http://www.w3.org/2000/svg" stroke-linejoin="round" class="absolute inset-0" viewBox="0 0 383.390625 642"><path fill="none" stroke="#5757E7" stroke-width="14" d="m194.847 270.654 35.424-28.507 40.915-31.955 9.789-7.458 6.302-4.931 20.626-17.201 18.374-14.541 21.056-18.329 7.462-6.13 3.088-1.35 2.938.169 2.772.996 2.598 2 1.2 2.601-.075 2.523-3.911 29.283-1.23 3.364-1.549 2.929-3.319 4.631-4.66 5.596-5.342 6.522-8.678 11.758-34.155 43.21-3.372 4.159-3.37 4.384-1.835 2.6" class="stroke-sector-1"/><path fill="none" stroke="#EBCFB2" stroke-width="14" d="m295.895 266.977-.29.411-.889 2.21-.148 3.61 1.195 4.641 2.54 5.724 7.283 14.61 3.476 6.342 2.267 5.773.998 4.282.843 5.293.473 4.437-.05 5.16-.454 5.411-1.025 4.903-1.156 4.007-1.567 3.607-2.077 3.655-2.889 3.877-2.874 2.813-4.383 2.822-6.254 2.844-5.708 1.97-5.586 1.465-3.862.335-2.939-.114-3.406-.538-4.408-1.251-4.816-2.76-4.54-4.096-3.502-4.523-23.838-32.134-2.356-1.785-3.26-.329-3.597 1.755-3.074 2.508-3.093 3.682-2.395 4.347-1.53 3.391-1.458 4.677-.858 5.579-.321 4.812.753 5.634 3.989 29.53.561 4.904-.087 3.683-.654 4.118-.788 3.56-1.523 3.216-1.86 4.551-6.818 13.593-3.23 6.416-4.197 8.143-2.76 5.937-3.563 5.686-4.433 5.449-4.363 4.334-5.783 4.991-10.519 7.96-40.286 28.497" class="stroke-sector-2"/><path fill="none" stroke="#FE0F6D" stroke-width="14" d="m120.806 500.602-1.102.779-2.834.367-3.069-1.279-.635-3.21.174-3.654-.077-3.384-.53-2.839-1.167-2.649-1.976-1.57-2.873-.703-2.912.222-3.095 1.176-2.94.916-3.355.54-3.437-.033-3.423-.998-3.432-1.728-4.584-2.667-3.929-2.339-3.035-2.015-4.019-3.162-4.505-4.203-3.507-3.752-2.038-2.951-.925-3.793.457-3.85 1.472-3.638 2.361-2.94 3.514-2.253 4.664-1.618 3.572-1.519 2.752-1.52 2.618-1.738 1.963-1.575 3.378-3.068 2.173-2.428 1.354-2.592 1.193-2.871.896-2.87.546-4.641-.091-3.231-.389-2.454-.747-2.498-1.014-2.488-1.307-2.566-1.505-2.224-1.246-1.74-1.784-1.829-1.261-.977-1.888-.843-1.497-.268h-1.631l-1.601.388-1.601 1.105-2.369 2.422-9.068 10.38-3.151 3.347-2.614 2.54-2.723 2.162-2.992 2.432-5 3.465-5.585 2.969-4.324 1.425-2.619.214-2.62-.235-2.179-.424-1.911-.693-2.254-.898-1.985-1.166-1.939-1.15-1.761-1.598-1.115-1.813-.667-1.993-.056-1.905.437-2.307.86-2.028 1.711-1.894 3.311-2.669 7.025-5.274 5.664-4.61 14.083-11.628 8.57-6.877 5.944-4.658 6.571-4.747 19.897-16.121 8.831-7.053 12.423-9.846 13.409-10.895 12.684-10.367 16.349-13.595 15.746-13.502 6.521-5.204 9.756-7.696 8.968-6.79" class="stroke-sector-3"/><path fill="none" stroke="#000" stroke-width="12" d="m194.847 270.654 35.424-28.507 40.915-31.955 9.789-7.458 6.302-4.931 20.626-17.201 18.374-14.541 21.056-18.329 7.462-6.13 3.088-1.35 2.938.169 2.772.996 2.598 2 1.2 2.601-.075 2.523-3.911 29.283-1.23 3.364-1.549 2.929-3.319 4.631-4.66 5.596-5.342 6.522-8.678 11.758-34.155 43.21-3.372 4.159-3.37 4.384-2.125 3.011-.889 2.21-.148 3.61 1.195 4.641 2.54 5.724 7.283 14.61 3.476 6.342 2.267 5.773.998 4.282.843 5.293.473 4.437-.05 5.16-.454 5.411-1.025 4.903-1.156 4.007-1.567 3.607-2.077 3.655-2.889 3.877-2.874 2.813-4.383 2.822-6.254 2.844-5.708 1.97-5.586 1.465-3.862.335-2.939-.114-3.406-.538-4.408-1.251-4.816-2.76-4.54-4.096-3.502-4.523-23.838-32.134-2.356-1.785-3.26-.329-3.597 1.755-3.074 2.508-3.093 3.682-2.395 4.347-1.53 3.391-1.458 4.677-.858 5.579-.321 4.812.753 5.634 3.989 29.53.561 4.904-.087 3.683-.654 4.118-.788 3.56-1.523 3.216-1.86 4.551-6.818 13.593-3.23 6.416-4.197 8.143-2.76 5.937-3.563 5.686-4.433 5.449-4.363 4.334-5.783 4.991-10.519 7.96-41.388 29.276-2.834.367-3.069-1.279-.635-3.21.174-3.654-.077-3.384-.53-2.839-1.167-2.649-1.976-1.57-2.873-.703-2.912.222-3.095 1.176-2.94.916-3.355.54-3.437-.033-3.423-.998-3.432-1.728-4.584-2.667-3.929-2.339-3.035-2.015-4.019-3.162-4.505-4.203-3.507-3.752-2.038-2.951-.925-3.793.457-3.85 1.472-3.638 2.361-2.94 3.514-2.253 4.664-1.618 3.572-1.519 2.752-1.52 2.618-1.738 1.963-1.575 3.378-3.068 2.173-2.428 1.354-2.592 1.193-2.871.896-2.87.546-4.641-.091-3.231-.389-2.454-.747-2.498-1.014-2.488-1.307-2.566-1.505-2.224-1.246-1.74-1.784-1.829-1.261-.977-1.888-.843-1.497-.268h-1.631l-1.601.388-1.601 1.105-2.369 2.422-9.068 10.38-3.151 3.347-2.614 2.54-2.723 2.162-2.992 2.432-5 3.465-5.585 2.969-4.324 1.425-2.619.214-2.62-.235-2.179-.424-1.911-.693-2.254-.898-1.985-1.166-1.939-1.15-1.761-1.598-1.115-1.813-.667-1.993-.056-1.905.437-2.307.86-2.028 1.711-1.894 3.311-2.669 7.025-5.274 5.664-4.61 14.083-11.628 8.57-6.877 5.944-4.658 6.571-4.747 19.897-16.121 8.831-7.053 12.423-9.846 13.409-10.895 12.684-10.367 16.349-13.595 15.746-13.502 6.521-5.204 9.756-7.696 8.968-6.79"/><path d="m200.68422618 277.9069584-1.29707572-1.61179894 1.61179893-1.29707573 1.29707573 1.61179894z"/><path fill="#FFF" d="m199.38715046 276.29515946-1.29707572-1.61179894 1.61179893-1.29707572 1.29707572 1.61179893z"/><path d="m198.09007474 274.68336052-1.29707573-1.61179893 1.61179894-1.29707573 1.29707572 1.61179894z"/><path fill="#FFF" d="m196.79299901 273.07156159-1.29707572-1.61179894 1.61179893-1.29707572 1.29707573 1.61179893z"/><path d="m195.49592329 271.45976265-1.29707573-1.61179893 1.61179894-1.29707572 1.29707572 1.61179893z"/><path fill="#FFF" d="m194.19884757 269.84796373-1.29707573-1.61179894 1.61179894-1.29707572 1.29707572 1.61179893z"/><path d="m192.90177184 268.2361648-1.29707572-1.61179894 1.61179893-1.29707573 1.29707573 1.61179894z"/><path fill="#FFF" d="m191.60469612 266.62436586-1.29707572-1.61179893 1.61179893-1.29707573 1.29707572 1.61179893z"/><path d="m190.3076204 265.01256693-1.29707573-1.61179894 1.61179894-1.29707572 1.29707572 1.61179893z"/><path fill="#FFF" d="m202.29602512 276.60988267-1.29707573-1.61179894 1.61179894-1.29707572 1.29707572 1.61179893z"/><path d="m200.9989494 274.99808373-1.29707573-1.61179893 1.61179893-1.29707573 1.29707573 1.61179894z"/><path fill="#FFF" d="m199.70187367 273.3862848-1.29707572-1.61179894 1.61179893-1.29707572 1.29707572 1.61179893z"/><path d="m198.40479795 271.77448586-1.29707573-1.61179893 1.61179893-1.29707572 1.29707573 1.61179893z"/><path fill="#FFF" d="m197.10772222 270.16268693-1.29707572-1.61179893 1.61179893-1.29707573 1.29707572 1.61179894z"/><path d="m195.8106465 268.550888-1.29707572-1.61179893 1.61179893-1.29707573 1.29707573 1.61179894z"/><path fill="#FFF" d="m194.51357078 266.93908907-1.29707573-1.61179894 1.61179894-1.29707572 1.29707572 1.61179893z"/><path d="m193.21649505 265.32729013-1.29707572-1.61179893 1.61179893-1.29707572 1.29707573 1.61179893z"/><path fill="#FFF" d="m191.91941933 263.7154912-1.29707572-1.61179893 1.61179893-1.29707573 1.29707572 1.61179894z"/><path d="m203.90782405 275.31280694-1.29707572-1.61179893 1.61179893-1.29707573 1.29707573 1.61179894z"/><path fill="#FFF" d="m202.61074833 273.701008-1.29707573-1.61179893 1.61179894-1.29707572 1.29707572 1.61179893z"/><path d="m201.3136726 272.08920907-1.29707572-1.61179893 1.61179893-1.29707572 1.29707573 1.61179893z"/><path fill="#FFF" d="m200.01659688 270.47741014-1.29707573-1.61179893 1.61179894-1.29707573 1.29707572 1.61179894z"/><path d="m198.71952115 268.8656112-1.29707572-1.61179893 1.61179893-1.29707572 1.29707573 1.61179893z"/><path fill="#FFF" d="m197.42244544 267.25381228-1.29707573-1.61179894 1.61179894-1.29707572 1.29707572 1.61179893z"/><path d="m196.12536971 265.64201334-1.29707572-1.61179893 1.61179893-1.29707572 1.29707573 1.61179893z"/><path fill="#FFF" d="m194.82829399 264.03021441-1.29707573-1.61179893 1.61179894-1.29707573 1.29707572 1.61179894z"/><path d="m193.53121826 262.41841548-1.29707572-1.61179894 1.61179893-1.29707572 1.29707573 1.61179893z"/></svg>