<svg xmlns:xlink="http://www.w3.org/1999/xlink" xmlns="http://www.w3.org/2000/svg" viewBox="0 0 383.390625 642" preserveAspectRatio="xMidYMid meet" stroke-linejoin="round" class="absolute inset-0" width="383.390625"  height="642" ><path class="stroke-sector-1" stroke-width="14px" fill="#000000" d="M194.847,270.654L230.271,242.147L271.186,210.192L280.975,202.734L287.277,197.803L307.903,180.602L326.277,166.061L347.333,147.732L354.795,141.602L357.883,140.252L360.821,140.421L363.593,141.417L366.191,143.417L367.391,146.018L367.316,148.541L363.405,177.824L362.175,181.188L360.626,184.117L357.307,188.748L352.647,194.344L347.305,200.866L338.627,212.624L304.472,255.834L301.1,259.993L297.73,264.377L295.895,266.977" stroke="#5757E7" fill-opacity="0"></path><path class="stroke-sector-2" stroke-width="14px" fill="#000000" d="M295.895,266.977L295.605,267.388L294.716,269.598L294.568,273.208L295.763,277.849L298.303,283.573L305.586,298.183L309.062,304.525L311.329,310.298L312.327,314.58L313.17,319.873L313.643,324.31L313.593,329.47L313.139,334.881L312.114,339.784L310.958,343.791L309.391,347.398L307.314,351.053L304.425,354.93L301.551,357.743L297.168,360.565L290.914,363.409L285.206,365.379L279.62,366.844L275.758,367.179L272.819,367.065L269.413,366.527L265.005,365.276L260.189,362.516L255.649,358.42L252.147,353.897L228.309,321.763L225.953,319.978L222.693,319.649L219.096,321.404L216.022,323.912L212.929,327.594L210.534,331.941L209.004,335.332L207.546,340.009L206.688,345.588L206.367,350.4L207.12,356.034L211.109,385.564L211.67,390.468L211.583,394.151L210.929,398.269L210.141,401.829L208.618,405.045L206.758,409.596L199.94,423.189L196.71,429.605L192.513,437.748L189.753,443.685L186.19,449.371L181.757,454.82L177.394,459.154L171.611,464.145L161.092,472.105L120.806,500.602" stroke="#EBCFB2" fill-opacity="0"></path><path class="stroke-sector-3" stroke-width="14px" fill="#000000" d="M120.806,500.602L119.704,501.381L116.87,501.748L113.801,500.469L113.166,497.259L113.34,493.605L113.263,490.221L112.733,487.382L111.566,484.733L109.59,483.163L106.717,482.46L103.805,482.682L100.71,483.858L97.77,484.774L94.415,485.314L90.978,485.281L87.555,484.283L84.123,482.555L79.539,479.888L75.61,477.549L72.575,475.534L68.556,472.372L64.051,468.169L60.544,464.417L58.506,461.466L57.581,457.673L58.038,453.823L59.51,450.185L61.871,447.245L65.385,444.992L70.049,443.374L73.621,441.855L76.373,440.335L78.991,438.597L80.954,437.022L84.332,433.954L86.505,431.526L87.859,428.934L89.052,426.063L89.948,423.193L90.494,418.552L90.403,415.321L90.014,412.867L89.267,410.369L88.253,407.881L86.946,405.315L85.441,403.091L84.195,401.351L82.411,399.522L81.15,398.545L79.262,397.702L77.765,397.434L76.134,397.434L74.533,397.822L72.932,398.927L70.563,401.349L61.495,411.729L58.344,415.076L55.73,417.616L53.007,419.778L50.015,422.21L45.015,425.675L39.43,428.644L35.106,430.069L32.487,430.283L29.867,430.048L27.688,429.624L25.777,428.931L23.523,428.033L21.538,426.867L19.599,425.717L17.838,424.119L16.723,422.306L16.056,420.313L16,418.408L16.437,416.101L17.297,414.073L19.008,412.179L22.319,409.51L29.344,404.236L35.008,399.626L49.091,387.998L57.661,381.121L63.605,376.463L70.176,371.716L90.073,355.595L98.904,348.542L111.327,338.696L124.736,327.801L137.42,317.434L153.769,303.839L169.515,290.337L176.036,285.133L185.792,277.437L194.76,270.647" stroke="#FE0F6D" fill-opacity="0"></path><path stroke="#000000" stroke-width="12px" fill="#000000" d="M194.847,270.654L230.271,242.147L271.186,210.192L280.975,202.734L287.277,197.803L307.903,180.602L326.277,166.061L347.333,147.732L354.795,141.602L357.883,140.252L360.821,140.421L363.593,141.417L366.191,143.417L367.391,146.018L367.316,148.541L363.405,177.824L362.175,181.188L360.626,184.117L357.307,188.748L352.647,194.344L347.305,200.866L338.627,212.624L304.472,255.834L301.1,259.993L297.73,264.377L295.605,267.388L294.716,269.598L294.568,273.208L295.763,277.849L298.303,283.573L305.586,298.183L309.062,304.525L311.329,310.298L312.327,314.58L313.17,319.873L313.643,324.31L313.593,329.47L313.139,334.881L312.114,339.784L310.958,343.791L309.391,347.398L307.314,351.053L304.425,354.93L301.551,357.743L297.168,360.565L290.914,363.409L285.206,365.379L279.62,366.844L275.758,367.179L272.819,367.065L269.413,366.527L265.005,365.276L260.189,362.516L255.649,358.42L252.147,353.897L228.309,321.763L225.953,319.978L222.693,319.649L219.096,321.404L216.022,323.912L212.929,327.594L210.534,331.941L209.004,335.332L207.546,340.009L206.688,345.588L206.367,350.4L207.12,356.034L211.109,385.564L211.67,390.468L211.583,394.151L210.929,398.269L210.141,401.829L208.618,405.045L206.758,409.596L199.94,423.189L196.71,429.605L192.513,437.748L189.753,443.685L186.19,449.371L181.757,454.82L177.394,459.154L171.611,464.145L161.092,472.105L119.704,501.381L116.87,501.748L113.801,500.469L113.166,497.259L113.34,493.605L113.263,490.221L112.733,487.382L111.566,484.733L109.59,483.163L106.717,482.46L103.805,482.682L100.71,483.858L97.77,484.774L94.415,485.314L90.978,485.281L87.555,484.283L84.123,482.555L79.539,479.888L75.61,477.549L72.575,475.534L68.556,472.372L64.051,468.169L60.544,464.417L58.506,461.466L57.581,457.673L58.038,453.823L59.51,450.185L61.871,447.245L65.385,444.992L70.049,443.374L73.621,441.855L76.373,440.335L78.991,438.597L80.954,437.022L84.332,433.954L86.505,431.526L87.859,428.934L89.052,426.063L89.948,423.193L90.494,418.552L90.403,415.321L90.014,412.867L89.267,410.369L88.253,407.881L86.946,405.315L85.441,403.091L84.195,401.351L82.411,399.522L81.15,398.545L79.262,397.702L77.765,397.434L76.134,397.434L74.533,397.822L72.932,398.927L70.563,401.349L61.495,411.729L58.344,415.076L55.73,417.616L53.007,419.778L50.015,422.21L45.015,425.675L39.43,428.644L35.106,430.069L32.487,430.283L29.867,430.048L27.688,429.624L25.777,428.931L23.523,428.033L21.538,426.867L19.599,425.717L17.838,424.119L16.723,422.306L16.056,420.313L16,418.408L16.437,416.101L17.297,414.073L19.008,412.179L22.319,409.51L29.344,404.236L35.008,399.626L49.091,387.998L57.661,381.121L63.605,376.463L70.176,371.716L90.073,355.595L98.904,348.542L111.327,338.696L124.736,327.801L137.42,317.434L153.769,303.839L169.515,290.337L176.036,285.133L185.792,277.437L194.76,270.647" fill-opacity="0"></path><g transform="translate(194.8473854274489, 270.65386319102254) rotate(231.175047715772)"><rect x="-9.31" y="0" width="2.068888888888889" height="2.068888888888889" fill="black"></rect><rect x="-7.2411111111111115" y="0" width="2.068888888888889" height="2.068888888888889" fill="#FFFFFF"></rect><rect x="-5.1722222222222225" y="0" width="2.068888888888889" height="2.068888888888889" fill="black"></rect><rect x="-3.1033333333333335" y="0" width="2.068888888888889" height="2.068888888888889" fill="#FFFFFF"></rect><rect x="-1.0344444444444445" y="0" width="2.068888888888889" height="2.068888888888889" fill="black"></rect><rect x="1.0344444444444445" y="0" width="2.068888888888889" height="2.068888888888889" fill="#FFFFFF"></rect><rect x="3.1033333333333335" y="0" width="2.068888888888889" height="2.068888888888889" fill="black"></rect><rect x="5.1722222222222225" y="0" width="2.068888888888889" height="2.068888888888889" fill="#FFFFFF"></rect><rect x="7.2411111111111115" y="0" width="2.068888888888889" height="2.068888888888889" fill="black"></rect><rect x="-9.31" y="2.068888888888889" width="2.068888888888889" height="2.068888888888889" fill="#FFFFFF"></rect><rect x="-7.2411111111111115" y="2.068888888888889" width="2.068888888888889" height="2.068888888888889" fill="black"></rect><rect x="-5.1722222222222225" y="2.068888888888889" width="2.068888888888889" height="2.068888888888889" fill="#FFFFFF"></rect><rect x="-3.1033333333333335" y="2.068888888888889" width="2.068888888888889" height="2.068888888888889" fill="black"></rect><rect x="-1.0344444444444445" y="2.068888888888889" width="2.068888888888889" height="2.068888888888889" fill="#FFFFFF"></rect><rect x="1.0344444444444445" y="2.068888888888889" width="2.068888888888889" height="2.068888888888889" fill="black"></rect><rect x="3.1033333333333335" y="2.068888888888889" width="2.068888888888889" height="2.068888888888889" fill="#FFFFFF"></rect><rect x="5.1722222222222225" y="2.068888888888889" width="2.068888888888889" height="2.068888888888889" fill="black"></rect><rect x="7.2411111111111115" y="2.068888888888889" width="2.068888888888889" height="2.068888888888889" fill="#FFFFFF"></rect><rect x="-9.31" y="4.137777777777778" width="2.068888888888889" height="2.068888888888889" fill="black"></rect><rect x="-7.2411111111111115" y="4.137777777777778" width="2.068888888888889" height="2.068888888888889" fill="#FFFFFF"></rect><rect x="-5.1722222222222225" y="4.137777777777778" width="2.068888888888889" height="2.068888888888889" fill="black"></rect><rect x="-3.1033333333333335" y="4.137777777777778" width="2.068888888888889" height="2.068888888888889" fill="#FFFFFF"></rect><rect x="-1.0344444444444445" y="4.137777777777778" width="2.068888888888889" height="2.068888888888889" fill="black"></rect><rect x="1.0344444444444445" y="4.137777777777778" width="2.068888888888889" height="2.068888888888889" fill="#FFFFFF"></rect><rect x="3.1033333333333335" y="4.137777777777778" width="2.068888888888889" height="2.068888888888889" fill="black"></rect><rect x="5.1722222222222225" y="4.137777777777778" width="2.068888888888889" height="2.068888888888889" fill="#FFFFFF"></rect><rect x="7.2411111111111115" y="4.137777777777778" width="2.068888888888889" height="2.068888888888889" fill="black"></rect></g></svg>