<svg xmlns="http://www.w3.org/2000/svg" stroke-linejoin="round" class="absolute inset-0" viewBox="0 0 383.390625 642"><path fill="none" stroke="#5757E7" stroke-width="14" d="m21.785 381.274 4.855-128.086 1.234-18.594 2.804-72.432.622-23.747 1.067-23.858 1.651-47.05.741-4.605 5.13-1.206 6.234 3.243 4.398 4.661 15.112 14.831 6.95 3.085 8.002-1.234 34.185-11.083 9.294-.03 8.958 1.362 51.433 9.642 56.284 10.524 113.891 21.49 7.674 2.255 4.095 4.27.992 5.47-.776 5.181-2.544 5.853-4.828 5.902-5.604 4.75-7.13 4.089-15.055 9.508-17.771 16.391-13.395 14.084-5.643 6.536" class="stroke-sector-1"/><path fill="none" stroke="#EBCFB2" stroke-width="14" d="m294.645 202.476-2.782 3.222-4.928 7.128-9.545 21.511-3.628 4.749-4.359 4.13-5.395 2.118-7.839 1.529-24.529-4.078-6.639.239-6.855 1.344-5.257 2.147-7.244 5.295-23.468 30.116-24.506 30.895-6.646 8.213-6.897 1.104-4.311-3.358-2.331-7.332-.131-8.546 11.725-72.783 5.729-39.05 1.943-10.905-.384-6.728-.989-6.873-4.487-8.949-5.802-6.231-10.217-8.569-5.399-4.07-5.138-1.473-2.936 2.647-3.142 21.944-3 22.085-1.792 18.464-1.117 29.706-2.54 65.606-2.803 71.048-2.586 63.996 1.294 9.974 4.485 6.011 6.899 2.968 8.924 1.823 9.182-.671 3.423-.673" class="stroke-sector-2"/><path fill="none" stroke="#FE0F6D" stroke-width="14" d="m138.627 452.199 8.044-1.582 11.769-5.661 9.915-7.005 11.907-14.994 6.296-14.024 6.145-16.682 7.031-15.11 7.291-7.524 7.543-5.164 9.183-5.661 12.76-3.167 14.01-.24 9.959 2.303 13.277 6.333 34.962 17.367 7.156 5.23 4.823 6.093 4.359 5.661 1.976 5.424.649 6.44-1.892 5.983-6.121 5.901-8.407 6.332L46.399 576.79l-5.997 3.014-9.231.5-6.046-10.567-6.143-13.603L16 544.126l.388-25.12 1.501-39.021 1.786-50.827 1.95-47.842" class="stroke-sector-3"/><path fill="none" stroke="#000" stroke-width="12" d="m21.785 381.274 4.855-128.086 1.234-18.594 2.804-72.432.622-23.747 1.067-23.858 1.651-47.05.741-4.605 5.13-1.206 6.234 3.243 4.398 4.661 15.112 14.831 6.95 3.085 8.002-1.234 34.185-11.083 9.294-.03 8.958 1.362 51.433 9.642 56.284 10.524 113.891 21.49 7.674 2.255 4.095 4.27.992 5.47-.776 5.181-2.544 5.853-4.828 5.902-5.604 4.75-7.13 4.089-15.055 9.508-17.771 16.391-13.395 14.084-8.425 9.758-4.928 7.128-9.545 21.511-3.628 4.749-4.359 4.13-5.395 2.118-7.839 1.529-24.529-4.078-6.639.239-6.855 1.344-5.257 2.147-7.244 5.295-23.468 30.116-24.506 30.895-6.646 8.213-6.897 1.104-4.311-3.358-2.331-7.332-.131-8.546 11.725-72.783 5.729-39.05 1.943-10.905-.384-6.728-.989-6.873-4.487-8.949-5.802-6.231-10.217-8.569-5.399-4.07-5.138-1.473-2.936 2.647-3.142 21.944-3 22.085-1.792 18.464-1.117 29.706-2.54 65.606-2.803 71.048-2.586 63.996 1.294 9.974 4.485 6.011 6.899 2.968 8.924 1.823 9.182-.671 11.467-2.255 11.769-5.661 9.915-7.005 11.907-14.994 6.296-14.024 6.145-16.682 7.031-15.11 7.291-7.524 7.543-5.164 9.183-5.661 12.76-3.167 14.01-.24 9.959 2.303 13.277 6.333 34.962 17.367 7.156 5.23 4.823 6.093 4.359 5.661 1.976 5.424.649 6.44-1.892 5.983-6.121 5.901-8.407 6.332L46.399 576.79l-5.997 3.014-9.231.5-6.046-10.567-6.143-13.603L16 544.126l.388-25.12 1.501-39.021 1.786-50.827 1.95-47.842"/><path d="m31.08783223 381.62632196-2.0674041-.07836813.07836813-2.06740409 2.0674041.07836813z"/><path fill="#FFF" d="m29.02042814 381.54795383-2.0674041-.07836813.07836813-2.06740409 2.0674041.07836813z"/><path d="m26.95302404 381.4695857-2.06740409-.07836812.07836813-2.0674041 2.0674041.07836813z"/><path fill="#FFF" d="m24.88561995 381.39121758-2.06740409-.07836813.07836813-2.06740409 2.06740409.07836813z"/><path d="m22.81821586 381.31284945-2.06740409-.07836813.07836813-2.06740409 2.06740409.07836813z"/><path fill="#FFF" d="m20.75081178 381.23448132-2.06740409-.07836812.07836813-2.0674041 2.06740409.07836813z"/><path d="m18.68340769 381.1561132-2.0674041-.07836813.07836814-2.06740409 2.06740409.07836813z"/><path fill="#FFF" d="m16.6160036 381.07774507-2.0674041-.07836812.07836813-2.0674041 2.0674041.07836813z"/><path d="m14.5485995 380.99937695-2.06740408-.07836813.07836812-2.0674041 2.0674041.07836813z"/><path fill="#FFF" d="m31.16620035 379.55891787-2.06740409-.07836813.07836813-2.0674041 2.06740409.07836814z"/><path d="m29.09879626 379.48054974-2.06740409-.07836813.07836813-2.06740409 2.06740409.07836813z"/><path fill="#FFF" d="m27.03139217 379.40218161-2.06740409-.07836812.07836813-2.0674041 2.06740409.07836813z"/><path d="m24.96398808 379.32381349-2.0674041-.07836813.07836814-2.0674041 2.06740409.07836814z"/><path fill="#FFF" d="m22.89658399 379.24544536-2.0674041-.07836813.07836813-2.06740409 2.0674041.07836813z"/><path d="m20.8291799 379.16707723-2.06740408-.07836812.07836812-2.0674041 2.0674041.07836813z"/><path fill="#FFF" d="m18.76177582 379.0887091-2.0674041-.07836812.07836813-2.0674041 2.0674041.07836814z"/><path d="m16.69437173 379.01034098-2.0674041-.07836813.07836813-2.06740409 2.0674041.07836813z"/><path fill="#FFF" d="m14.62696763 378.93197285-2.06740409-.07836812.07836813-2.0674041 2.0674041.07836813z"/><path d="m31.24456848 377.49151378-2.0674041-.07836813.07836814-2.0674041 2.06740409.07836813z"/><path fill="#FFF" d="m29.17716439 377.41314565-2.0674041-.07836813.07836813-2.06740409 2.0674041.07836813z"/><path d="m27.1097603 377.33477752-2.0674041-.07836812.07836813-2.0674041 2.0674041.07836813z"/><path fill="#FFF" d="m25.0423562 377.2564094-2.06740408-.07836813.07836812-2.0674041 2.0674041.07836813z"/><path d="m22.97495212 377.17804127-2.0674041-.07836813.07836813-2.06740409 2.0674041.07836813z"/><path fill="#FFF" d="m20.90754803 377.09967314-2.06740409-.07836812.07836813-2.0674041 2.0674041.07836813z"/><path d="m18.84014394 377.02130502-2.06740409-.07836813.07836813-2.0674041 2.06740409.07836814z"/><path fill="#FFF" d="m16.77273985 376.94293689-2.06740409-.07836813.07836813-2.06740409 2.06740409.07836813z"/><path d="m14.70533576 376.86456876-2.06740409-.07836812.07836813-2.0674041 2.06740409.07836813z"/></svg>