<svg xmlns:xlink="http://www.w3.org/1999/xlink" xmlns="http://www.w3.org/2000/svg" viewBox="0 0 383.390625 642" preserveAspectRatio="xMidYMid meet" stroke-linejoin="round" class="absolute inset-0" width="383.390625"  height="642" ><path class="stroke-sector-1" stroke-width="14px" fill="#000000" d="M21.785,381.274L26.64,253.188L27.874,234.594L30.678,162.162L31.3,138.415L32.367,114.557L34.018,67.507L34.759,62.902L39.889,61.696L46.123,64.939L50.521,69.6L65.633,84.431L72.583,87.516L80.585,86.282L114.77,75.199L124.064,75.169L133.022,76.531L184.455,86.173L240.739,96.697L354.63,118.187L362.304,120.442L366.399,124.712L367.391,130.182L366.615,135.363L364.071,141.216L359.243,147.118L353.639,151.868L346.509,155.957L331.454,165.465L313.683,181.856L300.288,195.94L294.645,202.476" stroke="#5757E7" fill-opacity="0"></path><path class="stroke-sector-2" stroke-width="14px" fill="#000000" d="M294.645,202.476L291.863,205.698L286.935,212.826L277.39,234.337L273.762,239.086L269.403,243.216L264.008,245.334L256.169,246.863L231.64,242.785L225.001,243.024L218.146,244.368L212.889,246.515L205.645,251.81L182.177,281.926L157.671,312.821L151.025,321.034L144.128,322.138L139.817,318.78L137.486,311.448L137.355,302.902L149.08,230.119L154.809,191.069L156.752,180.164L156.368,173.436L155.379,166.563L150.892,157.614L145.09,151.383L134.873,142.814L129.474,138.744L124.336,137.271L121.4,139.918L118.258,161.862L115.258,183.947L113.466,202.411L112.349,232.117L109.809,297.723L107.006,368.771L104.42,432.767L105.714,442.741L110.199,448.752L117.098,451.72L126.022,453.543L135.204,452.872L138.627,452.199" stroke="#EBCFB2" fill-opacity="0"></path><path class="stroke-sector-3" stroke-width="14px" fill="#000000" d="M138.627,452.199L146.671,450.617L158.44,444.956L168.355,437.951L180.262,422.957L186.558,408.933L192.703,392.251L199.734,377.141L207.025,369.617L214.568,364.453L223.751,358.792L236.511,355.625L250.521,355.385L260.48,357.688L273.757,364.021L308.719,381.388L315.875,386.618L320.698,392.711L325.057,398.372L327.033,403.796L327.682,410.236L325.79,416.219L319.669,422.12L311.262,428.452L46.399,576.79L40.402,579.804L31.171,580.304L25.125,569.737L18.982,556.134L16,544.126L16.388,519.006L17.889,479.985L19.675,429.158L21.625,381.316" stroke="#FE0F6D" fill-opacity="0"></path><path stroke="#000000" stroke-width="12px" fill="#000000" d="M21.785,381.274L26.64,253.188L27.874,234.594L30.678,162.162L31.3,138.415L32.367,114.557L34.018,67.507L34.759,62.902L39.889,61.696L46.123,64.939L50.521,69.6L65.633,84.431L72.583,87.516L80.585,86.282L114.77,75.199L124.064,75.169L133.022,76.531L184.455,86.173L240.739,96.697L354.63,118.187L362.304,120.442L366.399,124.712L367.391,130.182L366.615,135.363L364.071,141.216L359.243,147.118L353.639,151.868L346.509,155.957L331.454,165.465L313.683,181.856L300.288,195.94L291.863,205.698L286.935,212.826L277.39,234.337L273.762,239.086L269.403,243.216L264.008,245.334L256.169,246.863L231.64,242.785L225.001,243.024L218.146,244.368L212.889,246.515L205.645,251.81L182.177,281.926L157.671,312.821L151.025,321.034L144.128,322.138L139.817,318.78L137.486,311.448L137.355,302.902L149.08,230.119L154.809,191.069L156.752,180.164L156.368,173.436L155.379,166.563L150.892,157.614L145.09,151.383L134.873,142.814L129.474,138.744L124.336,137.271L121.4,139.918L118.258,161.862L115.258,183.947L113.466,202.411L112.349,232.117L109.809,297.723L107.006,368.771L104.42,432.767L105.714,442.741L110.199,448.752L117.098,451.72L126.022,453.543L135.204,452.872L146.671,450.617L158.44,444.956L168.355,437.951L180.262,422.957L186.558,408.933L192.703,392.251L199.734,377.141L207.025,369.617L214.568,364.453L223.751,358.792L236.511,355.625L250.521,355.385L260.48,357.688L273.757,364.021L308.719,381.388L315.875,386.618L320.698,392.711L325.057,398.372L327.033,403.796L327.682,410.236L325.79,416.219L319.669,422.12L311.262,428.452L46.399,576.79L40.402,579.804L31.171,580.304L25.125,569.737L18.982,556.134L16,544.126L16.388,519.006L17.889,479.985L19.675,429.158L21.625,381.316" fill-opacity="0"></path><g transform="translate(21.784513821359724, 381.27366538811475) rotate(182.17084513385416)"><rect x="-9.31" y="0" width="2.068888888888889" height="2.068888888888889" fill="black"></rect><rect x="-7.2411111111111115" y="0" width="2.068888888888889" height="2.068888888888889" fill="#FFFFFF"></rect><rect x="-5.1722222222222225" y="0" width="2.068888888888889" height="2.068888888888889" fill="black"></rect><rect x="-3.1033333333333335" y="0" width="2.068888888888889" height="2.068888888888889" fill="#FFFFFF"></rect><rect x="-1.0344444444444445" y="0" width="2.068888888888889" height="2.068888888888889" fill="black"></rect><rect x="1.0344444444444445" y="0" width="2.068888888888889" height="2.068888888888889" fill="#FFFFFF"></rect><rect x="3.1033333333333335" y="0" width="2.068888888888889" height="2.068888888888889" fill="black"></rect><rect x="5.1722222222222225" y="0" width="2.068888888888889" height="2.068888888888889" fill="#FFFFFF"></rect><rect x="7.2411111111111115" y="0" width="2.068888888888889" height="2.068888888888889" fill="black"></rect><rect x="-9.31" y="2.068888888888889" width="2.068888888888889" height="2.068888888888889" fill="#FFFFFF"></rect><rect x="-7.2411111111111115" y="2.068888888888889" width="2.068888888888889" height="2.068888888888889" fill="black"></rect><rect x="-5.1722222222222225" y="2.068888888888889" width="2.068888888888889" height="2.068888888888889" fill="#FFFFFF"></rect><rect x="-3.1033333333333335" y="2.068888888888889" width="2.068888888888889" height="2.068888888888889" fill="black"></rect><rect x="-1.0344444444444445" y="2.068888888888889" width="2.068888888888889" height="2.068888888888889" fill="#FFFFFF"></rect><rect x="1.0344444444444445" y="2.068888888888889" width="2.068888888888889" height="2.068888888888889" fill="black"></rect><rect x="3.1033333333333335" y="2.068888888888889" width="2.068888888888889" height="2.068888888888889" fill="#FFFFFF"></rect><rect x="5.1722222222222225" y="2.068888888888889" width="2.068888888888889" height="2.068888888888889" fill="black"></rect><rect x="7.2411111111111115" y="2.068888888888889" width="2.068888888888889" height="2.068888888888889" fill="#FFFFFF"></rect><rect x="-9.31" y="4.137777777777778" width="2.068888888888889" height="2.068888888888889" fill="black"></rect><rect x="-7.2411111111111115" y="4.137777777777778" width="2.068888888888889" height="2.068888888888889" fill="#FFFFFF"></rect><rect x="-5.1722222222222225" y="4.137777777777778" width="2.068888888888889" height="2.068888888888889" fill="black"></rect><rect x="-3.1033333333333335" y="4.137777777777778" width="2.068888888888889" height="2.068888888888889" fill="#FFFFFF"></rect><rect x="-1.0344444444444445" y="4.137777777777778" width="2.068888888888889" height="2.068888888888889" fill="black"></rect><rect x="1.0344444444444445" y="4.137777777777778" width="2.068888888888889" height="2.068888888888889" fill="#FFFFFF"></rect><rect x="3.1033333333333335" y="4.137777777777778" width="2.068888888888889" height="2.068888888888889" fill="black"></rect><rect x="5.1722222222222225" y="4.137777777777778" width="2.068888888888889" height="2.068888888888889" fill="#FFFFFF"></rect><rect x="7.2411111111111115" y="4.137777777777778" width="2.068888888888889" height="2.068888888888889" fill="black"></rect></g></svg>