<svg xmlns:xlink="http://www.w3.org/1999/xlink" xmlns="http://www.w3.org/2000/svg" viewBox="0 0 383.390625 642" preserveAspectRatio="xMidYMid meet" stroke-linejoin="round" class="absolute inset-0" width="383.390625"  height="642" ><path class="stroke-sector-1" stroke-width="14px" fill="#000000" d="M242.209,251.5L236.04,251.541L233.099,251.296L228.441,250.519L222.068,249.13L198.206,243.942L191.342,242.675L185.769,241.776L174.983,241.531L168.147,241.286L152.541,242.553L129.931,244.841L117.593,247.905L112,249.336L109.589,250.276L108.078,251.665L107.179,253.789L106.525,257.303L105.667,260.162L104.768,262.083L103.012,263.758L100.697,265.12L85.417,272.514L83.252,274.026L81.495,275.783L80.229,278.152L70.382,302.613L59.775,328.869" stroke="#5757E7" fill-opacity="0"></path><path class="stroke-sector-2" stroke-width="14px" fill="#000000" d="M59.775,328.869L59.237,330.2L51.756,349.348L51.266,350.982L51.143,352.249L51.143,354.006L51.429,355.599L53.88,364.242L54.207,365.754L54.248,367.429L54.044,368.409L53.594,369.553L52.573,370.942L30.337,389.646L19.96,398.307L16.858,401.68L16.082,403.437L16,405.643L16.531,407.767L17.675,409.728L19.514,411.158L21.842,411.812L23.762,411.812L29.4,411.036L43.894,409.156L60.032,406.95L69.055,405.725L77.512,404.867L83.15,404.049L88.86,404.009L92.373,404.131L97.521,404.54L103.115,405.439L110.714,406.909L116.597,408.053L121.614,408.952L125.291,409.483L127.906,409.728L129.867,409.442L131.991,408.666L133.503,407.645L134.933,406.174L136.322,404.09L137.752,401.394L140.955,395.111L142.14,392.537L143.611,388.697L144.55,384.734L145.082,381.057L145.286,377.873L144.959,373.706L144.428,369.906L142.916,363.288L139.076,347.31L137.55,339.95" stroke="#EBCFB2" fill-opacity="0"></path><path class="stroke-sector-3" stroke-width="14px" fill="#000000" d="M137.55,339.95L137.156,338.049L137.156,336.415L137.85,334.454L139.076,332.125L147.365,319.666L148.958,318.645L149.857,318.318L151.246,318.277L152.431,318.645L154.024,319.217L158.869,321.382L160.83,321.914L163.608,322.199L166.754,322.159L170.594,322.199L187.796,321.873L197.069,321.914L208.304,321.628L213.942,321.587L237.959,321.464L242.412,321.464L244.114,321.668L245.38,322.445L245.952,323.752L246.442,325.1L246.933,326.162L247.546,326.939L248.608,327.388L250.038,327.102L252.366,326.285L261.635,322.461L268.539,319.356L274.381,316.537L280.978,313.964L284.206,312.575L288.823,309.878L295.686,304.69L302.445,299.917L307.797,294.769L311.719,290.765L320.937,281.334L326.983,275.369L332.079,270.305L333.999,268.957L336.614,266.996L339.678,265.525L344.271,263.608L365.144,254.865L366.042,253.843L366.86,252.577L367.309,251.229L367.391,249.268L366.574,246.921L360.445,233.007L358.934,231.577L357.749,230.842L356.564,230.474L354.848,230.188L353.132,230.311L350.109,231.169L327.802,239.789L311.435,246.081L301.362,249.743L295.97,251.091L291.075,251.786L283.762,251.949L266.162,251.622L242.217,251.509" stroke="#FE0F6D" fill-opacity="0"></path><path stroke="#000000" stroke-width="12px" fill="#000000" d="M242.209,251.5L236.04,251.541L233.099,251.296L228.441,250.519L222.068,249.13L198.206,243.942L191.342,242.675L185.769,241.776L174.983,241.531L168.147,241.286L152.541,242.553L129.931,244.841L117.593,247.905L112,249.336L109.589,250.276L108.078,251.665L107.179,253.789L106.525,257.303L105.667,260.162L104.768,262.083L103.012,263.758L100.697,265.12L85.417,272.514L83.252,274.026L81.495,275.783L80.229,278.152L70.382,302.613L59.237,330.2L51.756,349.348L51.266,350.982L51.143,352.249L51.143,354.006L51.429,355.599L53.88,364.242L54.207,365.754L54.248,367.429L54.044,368.409L53.594,369.553L52.573,370.942L30.337,389.646L19.96,398.307L16.858,401.68L16.082,403.437L16,405.643L16.531,407.767L17.675,409.728L19.514,411.158L21.842,411.812L23.762,411.812L29.4,411.036L43.894,409.156L60.032,406.95L69.055,405.725L77.512,404.867L83.15,404.049L88.86,404.009L92.373,404.131L97.521,404.54L103.115,405.439L110.714,406.909L116.597,408.053L121.614,408.952L125.291,409.483L127.906,409.728L129.867,409.442L131.991,408.666L133.503,407.645L134.933,406.174L136.322,404.09L137.752,401.394L140.955,395.111L142.14,392.537L143.611,388.697L144.55,384.734L145.082,381.057L145.286,377.873L144.959,373.706L144.428,369.906L142.916,363.288L139.076,347.31L137.156,338.049L137.156,336.415L137.85,334.454L139.076,332.125L147.365,319.666L148.958,318.645L149.857,318.318L151.246,318.277L152.431,318.645L154.024,319.217L158.869,321.382L160.83,321.914L163.608,322.199L166.754,322.159L170.594,322.199L187.796,321.873L197.069,321.914L208.304,321.628L213.942,321.587L237.959,321.464L242.412,321.464L244.114,321.668L245.38,322.445L245.952,323.752L246.442,325.1L246.933,326.162L247.546,326.939L248.608,327.388L250.038,327.102L252.366,326.285L261.635,322.461L268.539,319.356L274.381,316.537L280.978,313.964L284.206,312.575L288.823,309.878L295.686,304.69L302.445,299.917L307.797,294.769L311.719,290.765L320.937,281.334L326.983,275.369L332.079,270.305L333.999,268.957L336.614,266.996L339.678,265.525L344.271,263.608L365.144,254.865L366.042,253.843L366.86,252.577L367.309,251.229L367.391,249.268L366.574,246.921L360.445,233.007L358.934,231.577L357.749,230.842L356.564,230.474L354.848,230.188L353.132,230.311L350.109,231.169L327.802,239.789L311.435,246.081L301.362,249.743L295.97,251.091L291.075,251.786L283.762,251.949L266.162,251.622L242.217,251.509" fill-opacity="0"></path><g transform="translate(242.20923553145258, 251.49992170580663) rotate(89.62056329723136)"><rect x="-9.31" y="0" width="2.068888888888889" height="2.068888888888889" fill="black"></rect><rect x="-7.2411111111111115" y="0" width="2.068888888888889" height="2.068888888888889" fill="#FFFFFF"></rect><rect x="-5.1722222222222225" y="0" width="2.068888888888889" height="2.068888888888889" fill="black"></rect><rect x="-3.1033333333333335" y="0" width="2.068888888888889" height="2.068888888888889" fill="#FFFFFF"></rect><rect x="-1.0344444444444445" y="0" width="2.068888888888889" height="2.068888888888889" fill="black"></rect><rect x="1.0344444444444445" y="0" width="2.068888888888889" height="2.068888888888889" fill="#FFFFFF"></rect><rect x="3.1033333333333335" y="0" width="2.068888888888889" height="2.068888888888889" fill="black"></rect><rect x="5.1722222222222225" y="0" width="2.068888888888889" height="2.068888888888889" fill="#FFFFFF"></rect><rect x="7.2411111111111115" y="0" width="2.068888888888889" height="2.068888888888889" fill="black"></rect><rect x="-9.31" y="2.068888888888889" width="2.068888888888889" height="2.068888888888889" fill="#FFFFFF"></rect><rect x="-7.2411111111111115" y="2.068888888888889" width="2.068888888888889" height="2.068888888888889" fill="black"></rect><rect x="-5.1722222222222225" y="2.068888888888889" width="2.068888888888889" height="2.068888888888889" fill="#FFFFFF"></rect><rect x="-3.1033333333333335" y="2.068888888888889" width="2.068888888888889" height="2.068888888888889" fill="black"></rect><rect x="-1.0344444444444445" y="2.068888888888889" width="2.068888888888889" height="2.068888888888889" fill="#FFFFFF"></rect><rect x="1.0344444444444445" y="2.068888888888889" width="2.068888888888889" height="2.068888888888889" fill="black"></rect><rect x="3.1033333333333335" y="2.068888888888889" width="2.068888888888889" height="2.068888888888889" fill="#FFFFFF"></rect><rect x="5.1722222222222225" y="2.068888888888889" width="2.068888888888889" height="2.068888888888889" fill="black"></rect><rect x="7.2411111111111115" y="2.068888888888889" width="2.068888888888889" height="2.068888888888889" fill="#FFFFFF"></rect><rect x="-9.31" y="4.137777777777778" width="2.068888888888889" height="2.068888888888889" fill="black"></rect><rect x="-7.2411111111111115" y="4.137777777777778" width="2.068888888888889" height="2.068888888888889" fill="#FFFFFF"></rect><rect x="-5.1722222222222225" y="4.137777777777778" width="2.068888888888889" height="2.068888888888889" fill="black"></rect><rect x="-3.1033333333333335" y="4.137777777777778" width="2.068888888888889" height="2.068888888888889" fill="#FFFFFF"></rect><rect x="-1.0344444444444445" y="4.137777777777778" width="2.068888888888889" height="2.068888888888889" fill="black"></rect><rect x="1.0344444444444445" y="4.137777777777778" width="2.068888888888889" height="2.068888888888889" fill="#FFFFFF"></rect><rect x="3.1033333333333335" y="4.137777777777778" width="2.068888888888889" height="2.068888888888889" fill="black"></rect><rect x="5.1722222222222225" y="4.137777777777778" width="2.068888888888889" height="2.068888888888889" fill="#FFFFFF"></rect><rect x="7.2411111111111115" y="4.137777777777778" width="2.068888888888889" height="2.068888888888889" fill="black"></rect></g></svg>