<svg xmlns:xlink="http://www.w3.org/1999/xlink" xmlns="http://www.w3.org/2000/svg" viewBox="0 0 383.390625 642" preserveAspectRatio="xMidYMid meet" stroke-linejoin="round" class="absolute inset-0" width="383.390625"  height="642" ><path class="stroke-sector-1" stroke-width="14px" fill="#000000" d="M142.03,130.896L136.743,121.622L130.284,110.204L125.782,101.657L118.165,88.42L110.532,75.176L105.769,67.021L99.656,56.808L95.285,49.305L91.696,43.237L90.326,40.106L90.457,38.148L91.305,37.104L92.414,36.322L93.849,36.061L95.089,36.256L97.633,36.843L102.266,38.67L116.162,45.129L127.58,51.001L138.209,56.695L142.645,59.631L147.473,62.958L156.176,69.742L164.658,76.462L168.768,80.311L172.748,84.225L176.07,88.157L181.028,93.899L184.943,98.726L191.745,107.257L194.876,111.041L199.77,116.391L206.203,124.081L211.748,130.344L216.315,135.694L220.295,140.326L223.818,144.632L226.297,147.438L227.863,149.003L230.49,150.593L233.295,152.42L237.079,154.834L240.863,157.248L244.386,159.531L246.8,161.489L249.091,164.036L250.918,166.58L252.68,169.451L253.984,172.257L255.094,175.062L256.072,177.802L256.92,180.999L257.507,183.817L257.899,187.079L258.486,191.19L258.878,194.256L259.204,196.67L259.921,199.541L260.965,202.477L262.14,204.891L264.097,208.414L271.982,221.763L276.484,228.94L284.501,241.43L286.785,245.018L289.525,249.846L293.048,255.28L295.593,259.195L297.876,262.718L300.16,266.828L302.313,270.547L304.342,274.69L306.3,279.257L307.996,283.824L309.497,288.457L311.65,295.246L313.607,301.771L315.564,308.034L317.195,314.036L318.565,318.929L320.066,324.148L320.979,328.454L322.545,334.065L324.437,340.067L325.612,344.112L328.963,355.666L331.964,365.061L333.986,371.911L337.836,384.779L339.989,392.738L342.076,400.176L345.469,411.907L347.818,419.736L350.362,428.155L351.667,431.939L353.951,438.986L355.321,444.037L356.395,447.943" stroke="#5757E7" fill-opacity="0"></path><path class="stroke-sector-2" stroke-width="14px" fill="#000000" d="M356.395,447.943L357.474,451.866L359.17,457.868L360.475,462.696L362.302,469.039L364.259,475.368L365.303,479.804L366.477,483.719L367.26,487.177L367.391,489.134L366.934,492.004L365.955,494.686L364.194,497.165L362.171,499.253L360.083,500.428L357.8,501.993L356.234,502.907L354.799,504.081L353.429,505.843L352.32,507.93L351.732,510.41L351.276,512.824L351.471,515.564L351.863,518.794L354.016,529.559L355.516,537.388L356.365,540.65L356.756,542.77L356.691,545.053L356.626,546.945L356.234,549.098L354.864,552.295L353.69,553.796L352.385,555.557L350.688,557.123L348.144,558.95L327.41,573.495L313.252,583.217L297.255,594.065L286.098,601.894L282.75,604.178L279.618,605.548L276.944,605.939L274.334,605.809L271.006,604.83L268.136,603.46L266.048,601.372L264.417,599.089L263.177,596.479L262.655,594.326L262.525,591.325L262.982,588.585L264.286,585.584L265.722,583.235L267.875,581.212L270.485,579.059L291.746,565.804L298.271,561.498L301.141,558.888L302.185,557.062L303.229,554.321L303.751,551.646L303.621,549.037L302.903,546.101L299.576,535.96L296.248,527.022L291.812,512.034L289.593,504.466L287.636,496.449L285.614,485.423L284.113,478.246L280.329,460.303L278.176,447.972L276.344,436.039L275.3,430.624L274.517,426.122L273.408,422.664L272.299,420.12L270.928,417.901L268.906,415.226L266.883,412.421L265.252,411.377L262.761,409.62L259.694,407.663L257.019,406.554L253.3,405.706L248.603,405.184L237.838,404.466L232.684,404.27L227.804,404.858L223.302,405.706L219.388,406.815L215.278,408.772L211.428,411.251L207.84,413.731L204.904,416.667L201.52,420.646L199.237,423.974L197.214,427.758L195.453,432.325L187.134,452.579L183.285,462.953L173.834,488.516L171.355,494.779L167.179,505.587L165.94,508.654L164.57,510.937L162.612,513.482L160.786,515.7L157.85,518.179L155.044,519.745L152.108,520.919L147.763,521.637L143.522,521.637L140.195,520.854L136.345,519.353L132.366,517.135L128.19,514.591L124.145,512.96L120.709,511.981L117.838,511.981L114.054,512.633L110.923,513.351L107.921,514.526L105.312,516.157L103.289,518.049L101.462,520.136L95.897,528.925L85.458,545.432L73.624,563.934L71.21,567.196L69.448,568.958L67.295,570.067L65.273,571.176L61.945,571.763L58.944,571.502L55.747,570.719L53.072,569.414L49.94,567.131L26.569,550.682L23.307,547.551L20.93,544.942" stroke="#EBCFB2" fill-opacity="0"></path><path class="stroke-sector-3" stroke-width="14px" fill="#000000" d="M20.93,544.942L20.632,544.615L19.001,541.809L17.762,539.004L16.783,536.003L16.13,533.197L16,530.653L16.196,527.717L16.457,524.311L16.652,521.962L17.566,518.895L19.262,514.263L21.741,508.13L23.372,503.759L24.482,500.758L25.917,498.204L28.657,493.246L31.397,488.744L35.638,482.415L39.101,477.898L42.663,473.712L47.816,468.246L53.38,462.815L57.98,458.155L64.682,451.544L71.985,445.683L78.033,441.619L83.674,438.293L90.451,434.645L105.868,426.609L117.007,420.675L133.58,411.66L139.027,407.888L142.823,404.942L145.911,401.902L148.935,398.976L151.678,396.125L154.614,392.375L158.232,387.428L160.665,382.939L162.528,379.365L163.853,376.57L165.001,373.984L167.543,368.411L170.235,362.163L173.968,354.171L175.88,349.596L178.502,343.748L180.744,338.058L182.232,332.681L182.895,327.754L182.853,324.107L182.643,320.292L182.391,317.199L181.719,314.036L180.038,308.719L178.189,303.292L176.003,297.396L173.479,290.559L167.339,274.765L162.75,263.415L159.588,254.5L157.706,247.576L156.243,240.484L155.502,235.374L154.547,225.075L154.031,215.593L153.269,207.928L150.923,186.015L150.509,182.183L150.999,180.279L152.472,178.447L154.76,178.073L156.373,178.315L159.763,179.126L162.266,179.433L164.472,178.566L166.252,176.501L166.684,174.018L165.409,171.191L162.235,166.343L158.016,159.687L150.434,147.004L142.093,130.978" stroke="#FE0F6D" fill-opacity="0"></path><path stroke="#000000" stroke-width="12px" fill="#000000" d="M142.03,130.896L136.743,121.622L130.284,110.204L125.782,101.657L118.165,88.42L110.532,75.176L105.769,67.021L99.656,56.808L95.285,49.305L91.696,43.237L90.326,40.106L90.457,38.148L91.305,37.104L92.414,36.322L93.849,36.061L95.089,36.256L97.633,36.843L102.266,38.67L116.162,45.129L127.58,51.001L138.209,56.695L142.645,59.631L147.473,62.958L156.176,69.742L164.658,76.462L168.768,80.311L172.748,84.225L176.07,88.157L181.028,93.899L184.943,98.726L191.745,107.257L194.876,111.041L199.77,116.391L206.203,124.081L211.748,130.344L216.315,135.694L220.295,140.326L223.818,144.632L226.297,147.438L227.863,149.003L230.49,150.593L233.295,152.42L237.079,154.834L240.863,157.248L244.386,159.531L246.8,161.489L249.091,164.036L250.918,166.58L252.68,169.451L253.984,172.257L255.094,175.062L256.072,177.802L256.92,180.999L257.507,183.817L257.899,187.079L258.486,191.19L258.878,194.256L259.204,196.67L259.921,199.541L260.965,202.477L262.14,204.891L264.097,208.414L271.982,221.763L276.484,228.94L284.501,241.43L286.785,245.018L289.525,249.846L293.048,255.28L295.593,259.195L297.876,262.718L300.16,266.828L302.313,270.547L304.342,274.69L306.3,279.257L307.996,283.824L309.497,288.457L311.65,295.246L313.607,301.771L315.564,308.034L317.195,314.036L318.565,318.929L320.066,324.148L320.979,328.454L322.545,334.065L324.437,340.067L325.612,344.112L328.963,355.666L331.964,365.061L333.986,371.911L337.836,384.779L339.989,392.738L342.076,400.176L345.469,411.907L347.818,419.736L350.362,428.155L351.667,431.939L353.951,438.986L355.321,444.037L357.474,451.866L359.17,457.868L360.475,462.696L362.302,469.039L364.259,475.368L365.303,479.804L366.477,483.719L367.26,487.177L367.391,489.134L366.934,492.004L365.955,494.686L364.194,497.165L362.171,499.253L360.083,500.428L357.8,501.993L356.234,502.907L354.799,504.081L353.429,505.843L352.32,507.93L351.732,510.41L351.276,512.824L351.471,515.564L351.863,518.794L354.016,529.559L355.516,537.388L356.365,540.65L356.756,542.77L356.691,545.053L356.626,546.945L356.234,549.098L354.864,552.295L353.69,553.796L352.385,555.557L350.688,557.123L348.144,558.95L327.41,573.495L313.252,583.217L297.255,594.065L286.098,601.894L282.75,604.178L279.618,605.548L276.944,605.939L274.334,605.809L271.006,604.83L268.136,603.46L266.048,601.372L264.417,599.089L263.177,596.479L262.655,594.326L262.525,591.325L262.982,588.585L264.286,585.584L265.722,583.235L267.875,581.212L270.485,579.059L291.746,565.804L298.271,561.498L301.141,558.888L302.185,557.062L303.229,554.321L303.751,551.646L303.621,549.037L302.903,546.101L299.576,535.96L296.248,527.022L291.812,512.034L289.593,504.466L287.636,496.449L285.614,485.423L284.113,478.246L280.329,460.303L278.176,447.972L276.344,436.039L275.3,430.624L274.517,426.122L273.408,422.664L272.299,420.12L270.928,417.901L268.906,415.226L266.883,412.421L265.252,411.377L262.761,409.62L259.694,407.663L257.019,406.554L253.3,405.706L248.603,405.184L237.838,404.466L232.684,404.27L227.804,404.858L223.302,405.706L219.388,406.815L215.278,408.772L211.428,411.251L207.84,413.731L204.904,416.667L201.52,420.646L199.237,423.974L197.214,427.758L195.453,432.325L187.134,452.579L183.285,462.953L173.834,488.516L171.355,494.779L167.179,505.587L165.94,508.654L164.57,510.937L162.612,513.482L160.786,515.7L157.85,518.179L155.044,519.745L152.108,520.919L147.763,521.637L143.522,521.637L140.195,520.854L136.345,519.353L132.366,517.135L128.19,514.591L124.145,512.96L120.709,511.981L117.838,511.981L114.054,512.633L110.923,513.351L107.921,514.526L105.312,516.157L103.289,518.049L101.462,520.136L95.897,528.925L85.458,545.432L73.624,563.934L71.21,567.196L69.448,568.958L67.295,570.067L65.273,571.176L61.945,571.763L58.944,571.502L55.747,570.719L53.072,569.414L49.94,567.131L26.569,550.682L23.307,547.551L20.632,544.615L19.001,541.809L17.762,539.004L16.783,536.003L16.13,533.197L16,530.653L16.196,527.717L16.457,524.311L16.652,521.962L17.566,518.895L19.262,514.263L21.741,508.13L23.372,503.759L24.482,500.758L25.917,498.204L28.657,493.246L31.397,488.744L35.638,482.415L39.101,477.898L42.663,473.712L47.816,468.246L53.38,462.815L57.98,458.155L64.682,451.544L71.985,445.683L78.033,441.619L83.674,438.293L90.451,434.645L105.868,426.609L117.007,420.675L133.58,411.66L139.027,407.888L142.823,404.942L145.911,401.902L148.935,398.976L151.678,396.125L154.614,392.375L158.232,387.428L160.665,382.939L162.528,379.365L163.853,376.57L165.001,373.984L167.543,368.411L170.235,362.163L173.968,354.171L175.88,349.596L178.502,343.748L180.744,338.058L182.232,332.681L182.895,327.754L182.853,324.107L182.643,320.292L182.391,317.199L181.719,314.036L180.038,308.719L178.189,303.292L176.003,297.396L173.479,290.559L167.339,274.765L162.75,263.415L159.588,254.5L157.706,247.576L156.243,240.484L155.502,235.374L154.547,225.075L154.031,215.593L153.269,207.928L150.923,186.015L150.509,182.183L150.999,180.279L152.472,178.447L154.76,178.073L156.373,178.315L159.763,179.126L162.266,179.433L164.472,178.566L166.252,176.501L166.684,174.018L165.409,171.191L162.235,166.343L158.016,159.687L150.434,147.004L142.093,130.978" fill-opacity="0"></path><g transform="translate(142.0304333431268, 130.89618208259344) rotate(150.311579658202)"><rect x="-9.31" y="0" width="2.068888888888889" height="2.068888888888889" fill="black"></rect><rect x="-7.2411111111111115" y="0" width="2.068888888888889" height="2.068888888888889" fill="#FFFFFF"></rect><rect x="-5.1722222222222225" y="0" width="2.068888888888889" height="2.068888888888889" fill="black"></rect><rect x="-3.1033333333333335" y="0" width="2.068888888888889" height="2.068888888888889" fill="#FFFFFF"></rect><rect x="-1.0344444444444445" y="0" width="2.068888888888889" height="2.068888888888889" fill="black"></rect><rect x="1.0344444444444445" y="0" width="2.068888888888889" height="2.068888888888889" fill="#FFFFFF"></rect><rect x="3.1033333333333335" y="0" width="2.068888888888889" height="2.068888888888889" fill="black"></rect><rect x="5.1722222222222225" y="0" width="2.068888888888889" height="2.068888888888889" fill="#FFFFFF"></rect><rect x="7.2411111111111115" y="0" width="2.068888888888889" height="2.068888888888889" fill="black"></rect><rect x="-9.31" y="2.068888888888889" width="2.068888888888889" height="2.068888888888889" fill="#FFFFFF"></rect><rect x="-7.2411111111111115" y="2.068888888888889" width="2.068888888888889" height="2.068888888888889" fill="black"></rect><rect x="-5.1722222222222225" y="2.068888888888889" width="2.068888888888889" height="2.068888888888889" fill="#FFFFFF"></rect><rect x="-3.1033333333333335" y="2.068888888888889" width="2.068888888888889" height="2.068888888888889" fill="black"></rect><rect x="-1.0344444444444445" y="2.068888888888889" width="2.068888888888889" height="2.068888888888889" fill="#FFFFFF"></rect><rect x="1.0344444444444445" y="2.068888888888889" width="2.068888888888889" height="2.068888888888889" fill="black"></rect><rect x="3.1033333333333335" y="2.068888888888889" width="2.068888888888889" height="2.068888888888889" fill="#FFFFFF"></rect><rect x="5.1722222222222225" y="2.068888888888889" width="2.068888888888889" height="2.068888888888889" fill="black"></rect><rect x="7.2411111111111115" y="2.068888888888889" width="2.068888888888889" height="2.068888888888889" fill="#FFFFFF"></rect><rect x="-9.31" y="4.137777777777778" width="2.068888888888889" height="2.068888888888889" fill="black"></rect><rect x="-7.2411111111111115" y="4.137777777777778" width="2.068888888888889" height="2.068888888888889" fill="#FFFFFF"></rect><rect x="-5.1722222222222225" y="4.137777777777778" width="2.068888888888889" height="2.068888888888889" fill="black"></rect><rect x="-3.1033333333333335" y="4.137777777777778" width="2.068888888888889" height="2.068888888888889" fill="#FFFFFF"></rect><rect x="-1.0344444444444445" y="4.137777777777778" width="2.068888888888889" height="2.068888888888889" fill="black"></rect><rect x="1.0344444444444445" y="4.137777777777778" width="2.068888888888889" height="2.068888888888889" fill="#FFFFFF"></rect><rect x="3.1033333333333335" y="4.137777777777778" width="2.068888888888889" height="2.068888888888889" fill="black"></rect><rect x="5.1722222222222225" y="4.137777777777778" width="2.068888888888889" height="2.068888888888889" fill="#FFFFFF"></rect><rect x="7.2411111111111115" y="4.137777777777778" width="2.068888888888889" height="2.068888888888889" fill="black"></rect></g></svg>