<svg xmlns:xlink="http://www.w3.org/1999/xlink" xmlns="http://www.w3.org/2000/svg" viewBox="0 0 383.390625 642" preserveAspectRatio="xMidYMid meet" stroke-linejoin="round" class="absolute inset-0" width="383.390625"  height="642" ><path class="stroke-sector-1" stroke-width="14px" fill="#000000" d="M50.296,441.489L64.295,499.747L76.176,546.703L82.022,569.143L84.662,579.138L88.056,586.304L94.09,593.281L100.313,597.43L106.725,599.127L112.571,598.75L118.04,596.487L123.131,592.149L129.543,585.926L134.968,580.081L139.682,575.178L143.642,572.915L148.545,571.783L152.505,571.972L158.163,573.48L163.82,576.309L181.169,586.681L191.452,590.075L201.635,591.395L212.195,591.584L220.87,590.829L231.996,587.812L240.293,584.418L248.213,579.326L255.945,574.423L262.357,567.823L269.711,559.149L276.123,548.023L280.082,539.898L283.099,530.658L289.322,508.783L311.006,426.806L327.978,360.82L342.121,308.436L342.716,306.28" stroke="#5757E7" fill-opacity="0"></path><path class="stroke-sector-2" stroke-width="14px" fill="#000000" d="M342.716,306.28L362.488,234.542L365.128,223.982L367.391,214.176L366.825,207.953L364.751,202.107L360.79,196.827L355.699,192.678L348.344,190.226L302.897,181.175L294.977,180.798L285.171,182.118L274.8,184.569L265.182,189.095L258.219,193.809L250.487,200.221L241.058,211.347L218.995,240.679L184.297,289.709L159.061,323.087L148.312,338.55L139.072,350.242L130.209,357.785L117.951,361.933L109.654,362.122L101.357,361.368L91.404,359.088L81.28,355.511L71.87,349.82L65.248,343.933L61,337.176L58.3,328.524L52.174,301.241L49.374,283.729L47.76,274.973L48.288,266.216L48.825,261.685L51.505,256.297L55.982,252.42L61.861,250.91L67.584,251.654L73.016,254.596L85.583,263.348L92.09,266.372L100.715,267.373L106.818,266.083L113.195,262.368L117.663,257.186L121.687,249.734L122.676,242.683L122.403,236.855L118.941,230.104L111.839,221.101L97.544,206.879L88.99,197.85L83.689,190.266L78.481,180.334L75.365,171.788L72.784,161.119L69.959,149.134L69.314,139.561L71.805,131.96L75.481,128.543L81.155,126.579L86.807,127.899L93.469,133.42L109.846,153.574L125.709,171.581L141.57,181.096L152.729,183.565L164.912,183.987L176.327,181.851L186.207,177.668L199.317,167.769L213.29,149.261L230.79,120.862L242.485,101.091" stroke="#EBCFB2" fill-opacity="0"></path><path class="stroke-sector-3" stroke-width="14px" fill="#000000" d="M242.485,101.091L252.128,84.789L254.898,78.127L255.321,72.477L252.42,68.106L247.899,63.107L239.372,58.561L221.125,52.053L200.831,45.033L190.13,42.873L162.525,46.142L143.095,49.823L123.751,56.751L104.919,65.727L82.09,79.072L69.175,88.882L59.841,100.098L50.314,120.286L44.527,141.124L40.792,158.142L37.057,177.206L31.633,204.591L26.925,223.55L18.636,254.531L16.026,270.022L16,284.418L16.499,298.011L20.073,311.202L24.674,334.169L34.009,378.267L49.862,440.717" stroke="#FE0F6D" fill-opacity="0"></path><path stroke="#000000" stroke-width="12px" fill="#000000" d="M50.296,441.489L64.295,499.747L76.176,546.703L82.022,569.143L84.662,579.138L88.056,586.304L94.09,593.281L100.313,597.43L106.725,599.127L112.571,598.75L118.04,596.487L123.131,592.149L129.543,585.926L134.968,580.081L139.682,575.178L143.642,572.915L148.545,571.783L152.505,571.972L158.163,573.48L163.82,576.309L181.169,586.681L191.452,590.075L201.635,591.395L212.195,591.584L220.87,590.829L231.996,587.812L240.293,584.418L248.213,579.326L255.945,574.423L262.357,567.823L269.711,559.149L276.123,548.023L280.082,539.898L283.099,530.658L289.322,508.783L311.006,426.806L327.978,360.82L342.121,308.436L362.488,234.542L365.128,223.982L367.391,214.176L366.825,207.953L364.751,202.107L360.79,196.827L355.699,192.678L348.344,190.226L302.897,181.175L294.977,180.798L285.171,182.118L274.8,184.569L265.182,189.095L258.219,193.809L250.487,200.221L241.058,211.347L218.995,240.679L184.297,289.709L159.061,323.087L148.312,338.55L139.072,350.242L130.209,357.785L117.951,361.933L109.654,362.122L101.357,361.368L91.404,359.088L81.28,355.511L71.87,349.82L65.248,343.933L61,337.176L58.3,328.524L52.174,301.241L49.374,283.729L47.76,274.973L48.288,266.216L48.825,261.685L51.505,256.297L55.982,252.42L61.861,250.91L67.584,251.654L73.016,254.596L85.583,263.348L92.09,266.372L100.715,267.373L106.818,266.083L113.195,262.368L117.663,257.186L121.687,249.734L122.676,242.683L122.403,236.855L118.941,230.104L111.839,221.101L97.544,206.879L88.99,197.85L83.689,190.266L78.481,180.334L75.365,171.788L72.784,161.119L69.959,149.134L69.314,139.561L71.805,131.96L75.481,128.543L81.155,126.579L86.807,127.899L93.469,133.42L109.846,153.574L125.709,171.581L141.57,181.096L152.729,183.565L164.912,183.987L176.327,181.851L186.207,177.668L199.317,167.769L213.29,149.261L230.79,120.862L252.128,84.789L254.898,78.127L255.321,72.477L252.42,68.106L247.899,63.107L239.372,58.561L221.125,52.053L200.831,45.033L190.13,42.873L162.525,46.142L143.095,49.823L123.751,56.751L104.919,65.727L82.09,79.072L69.175,88.882L59.841,100.098L50.314,120.286L44.527,141.124L40.792,158.142L37.057,177.206L31.633,204.591L26.925,223.55L18.636,254.531L16.026,270.022L16,284.418L16.499,298.011L20.073,311.202L24.674,334.169L34.009,378.267L49.862,440.717" fill-opacity="0"></path><g transform="translate(50.296076079364866, 441.4891588008031) rotate(-13.511926163382427)"><rect x="-9.31" y="0" width="2.068888888888889" height="2.068888888888889" fill="black"></rect><rect x="-7.2411111111111115" y="0" width="2.068888888888889" height="2.068888888888889" fill="#FFFFFF"></rect><rect x="-5.1722222222222225" y="0" width="2.068888888888889" height="2.068888888888889" fill="black"></rect><rect x="-3.1033333333333335" y="0" width="2.068888888888889" height="2.068888888888889" fill="#FFFFFF"></rect><rect x="-1.0344444444444445" y="0" width="2.068888888888889" height="2.068888888888889" fill="black"></rect><rect x="1.0344444444444445" y="0" width="2.068888888888889" height="2.068888888888889" fill="#FFFFFF"></rect><rect x="3.1033333333333335" y="0" width="2.068888888888889" height="2.068888888888889" fill="black"></rect><rect x="5.1722222222222225" y="0" width="2.068888888888889" height="2.068888888888889" fill="#FFFFFF"></rect><rect x="7.2411111111111115" y="0" width="2.068888888888889" height="2.068888888888889" fill="black"></rect><rect x="-9.31" y="2.068888888888889" width="2.068888888888889" height="2.068888888888889" fill="#FFFFFF"></rect><rect x="-7.2411111111111115" y="2.068888888888889" width="2.068888888888889" height="2.068888888888889" fill="black"></rect><rect x="-5.1722222222222225" y="2.068888888888889" width="2.068888888888889" height="2.068888888888889" fill="#FFFFFF"></rect><rect x="-3.1033333333333335" y="2.068888888888889" width="2.068888888888889" height="2.068888888888889" fill="black"></rect><rect x="-1.0344444444444445" y="2.068888888888889" width="2.068888888888889" height="2.068888888888889" fill="#FFFFFF"></rect><rect x="1.0344444444444445" y="2.068888888888889" width="2.068888888888889" height="2.068888888888889" fill="black"></rect><rect x="3.1033333333333335" y="2.068888888888889" width="2.068888888888889" height="2.068888888888889" fill="#FFFFFF"></rect><rect x="5.1722222222222225" y="2.068888888888889" width="2.068888888888889" height="2.068888888888889" fill="black"></rect><rect x="7.2411111111111115" y="2.068888888888889" width="2.068888888888889" height="2.068888888888889" fill="#FFFFFF"></rect><rect x="-9.31" y="4.137777777777778" width="2.068888888888889" height="2.068888888888889" fill="black"></rect><rect x="-7.2411111111111115" y="4.137777777777778" width="2.068888888888889" height="2.068888888888889" fill="#FFFFFF"></rect><rect x="-5.1722222222222225" y="4.137777777777778" width="2.068888888888889" height="2.068888888888889" fill="black"></rect><rect x="-3.1033333333333335" y="4.137777777777778" width="2.068888888888889" height="2.068888888888889" fill="#FFFFFF"></rect><rect x="-1.0344444444444445" y="4.137777777777778" width="2.068888888888889" height="2.068888888888889" fill="black"></rect><rect x="1.0344444444444445" y="4.137777777777778" width="2.068888888888889" height="2.068888888888889" fill="#FFFFFF"></rect><rect x="3.1033333333333335" y="4.137777777777778" width="2.068888888888889" height="2.068888888888889" fill="black"></rect><rect x="5.1722222222222225" y="4.137777777777778" width="2.068888888888889" height="2.068888888888889" fill="#FFFFFF"></rect><rect x="7.2411111111111115" y="4.137777777777778" width="2.068888888888889" height="2.068888888888889" fill="black"></rect></g></svg>